<svg width="12" height="8" viewBox="0 0 12 8" fill="none" xmlns="http://www.w3.org/2000/svg">
<path d="M1.5 3.25H8.7L6.9675 1.5175C6.81975 1.36975 6.75 1.1935 6.75 1C6.75 0.631 7.05487 0.25 7.5 0.25C7.69913 0.25 7.87275 0.322375 8.0175 0.4675L11.0018 3.45175C11.1248 3.57475 11.25 3.72662 11.25 4C11.25 4.27338 11.1454 4.405 11.0078 4.54263L8.0175 7.5325C7.87275 7.67763 7.69913 7.75 7.5 7.75C7.0545 7.75 6.75 7.369 6.75 7C6.75 6.8065 6.81975 6.63025 6.9675 6.4825L8.7 4.75H1.5C1.086 4.75 0.75 4.414 0.75 4C0.75 3.586 1.086 3.25 1.5 3.25Z" fill="white"/>
</svg>
