<svg width="113" height="154" viewBox="0 0 113 154" fill="none" xmlns="http://www.w3.org/2000/svg">
<path d="M61.7592 142L62.9876 140.487L64.4741 138.692L66.3794 136.056C68.0389 133.671 69.5697 131.199 70.965 128.651C71.7697 127.188 72.5639 125.61 73.3559 123.877C74.1479 122.144 74.9295 120.355 75.6138 118.413C76.2981 116.471 77.0278 114.463 77.7408 112.354C78.4539 110.244 78.9973 108.011 79.5013 105.71C80.6052 100.892 81.453 96.0199 82.0411 91.1127C82.6162 85.871 82.9046 80.6018 82.9052 75.3286C82.9787 69.8219 82.6503 64.3171 81.9225 58.8581C81.205 53.3171 79.8737 47.8731 77.953 42.6264C76.9814 40.0283 75.8379 37.4977 74.53 35.0515C73.1976 32.664 71.691 30.3778 70.0226 28.2117C69.6003 27.6774 69.1842 27.1487 68.7744 26.6254L68.7495 26.5634C68.7868 26.6564 68.6129 26.4023 68.617 26.4126L68.5756 26.3093L68.41 26.1358L68.0934 25.7951L67.4559 25.1032C67.009 24.6468 66.6591 24.2234 66.1398 23.7361L64.6106 22.3465C62.6509 20.6336 60.542 19.0993 58.3091 17.7618C54.272 15.3283 49.8533 13.5934 45.2389 12.6302C41.3274 11.8181 37.3123 11.6277 33.3415 12.0659C31.6908 12.31 30.059 12.6681 28.4578 13.1377C27.0991 13.5252 25.7759 14.028 24.5027 14.6406C23.4776 15.1018 22.4934 15.6492 21.5607 16.2767C20.8319 16.6975 20.1444 17.1862 19.5074 17.7363L17.9212 19.0444C17.642 19.2749 17.4655 19.6066 17.4302 19.9669C17.395 20.3273 17.5038 20.6869 17.733 20.9671C17.9289 21.2066 18.2007 21.3719 18.5034 21.4359C18.806 21.4999 19.1215 21.4586 19.3975 21.3189L19.5731 21.2484L21.2302 20.4157C21.8794 20.0518 22.5565 19.74 23.2551 19.4833L24.5362 18.9693L25.2388 18.6874L26.02 18.4819L27.6733 18.0585C28.2855 17.9131 28.905 17.8007 29.5293 17.7217C30.9289 17.4793 32.3445 17.3403 33.7646 17.3058C37.1695 17.2633 40.5646 17.6804 43.858 18.5459C47.7699 19.5718 51.5098 21.167 54.9577 23.2806C56.8426 24.4062 58.6221 25.6995 60.2745 27.1449C60.6759 27.4876 61.0856 27.851 61.4911 28.2041C61.8967 28.5572 62.3293 29.0673 62.7576 29.5072C63.186 29.9471 63.5648 30.3828 63.958 30.7649L65.0798 32.126C68.1725 35.9665 70.7176 40.2173 72.6425 44.757C74.6694 49.5495 76.1825 54.5433 77.1564 59.6548C78.1597 64.8293 78.787 70.0697 79.0333 75.3348C79.2365 80.4889 79.157 85.6503 78.7952 90.7957C78.5911 93.2766 78.387 95.7575 78.0215 98.1351C77.8988 99.3839 77.6416 100.507 77.4505 101.675C77.2595 102.843 77.0312 103.978 76.7575 105.12C76.3071 107.375 75.7161 109.52 75.1643 111.612C74.6125 113.705 73.9489 115.698 73.2273 117.547C72.5057 119.396 71.7593 121.183 71.052 122.858C70.3447 124.533 69.5441 126.006 68.756 127.45C67.4252 129.908 65.9354 132.277 64.2961 134.541L62.461 136.992L60.9538 138.797L59.6612 140.239C59.525 140.371 59.4177 140.53 59.3462 140.706C59.2747 140.881 59.2404 141.07 59.2457 141.26C59.2509 141.449 59.2955 141.636 59.3767 141.807C59.4578 141.979 59.5737 142.132 59.7171 142.256C59.8604 142.38 60.028 142.474 60.2092 142.53C60.3905 142.586 60.5814 142.604 60.7699 142.582C60.9585 142.561 61.1404 142.5 61.3043 142.405C61.4682 142.309 61.6105 142.18 61.722 142.027L61.7592 142Z" fill="#E7F0F7"/>
<path d="M65.8141 144.931C63.6312 145.721 61.3924 146.347 59.1162 146.803C58.0167 147.052 56.8882 147.229 55.6915 147.445C54.4948 147.661 53.4096 147.737 52.2004 147.862L54.9743 149.484C54.9385 148.887 54.911 148.31 54.8897 147.719L54.8548 145.957L54.8282 144.217C54.8255 143.642 54.7856 143.034 54.7892 142.505C54.7259 141.331 54.7268 140.227 54.6078 139.064C54.5452 138.489 54.4309 137.935 54.3104 137.336C54.1766 136.731 54.0019 136.136 53.7876 135.554L49.5185 135.348C49.7293 135.851 49.9837 136.335 50.2787 136.794C50.5206 137.159 50.8969 137.414 51.3257 137.502C51.7545 137.591 52.2009 137.506 52.5676 137.267C52.7428 137.149 52.8942 136.999 53.0137 136.824C53.3229 136.376 53.5849 135.897 53.7957 135.395C54.0161 134.93 54.0427 134.396 53.8694 133.911C53.6962 133.426 53.3374 133.029 52.872 132.809C52.4066 132.588 51.8726 132.562 51.3876 132.735C50.9026 132.908 50.5063 133.267 50.2858 133.733L49.5329 135.234C48.9204 136.422 48.5315 137.713 48.3854 139.041C48.2389 140.36 48.2535 141.691 48.4289 143.006C48.5909 144.317 48.8654 145.611 49.2495 146.875C49.6373 148.135 50.0941 149.374 50.6177 150.584L50.8955 151.276C50.9929 151.5 51.1335 151.702 51.3093 151.871C51.4851 152.04 51.6926 152.172 51.9198 152.26C52.1471 152.349 52.3895 152.391 52.6332 152.386C52.8769 152.38 53.1171 152.326 53.3399 152.227L53.4225 152.194C54.4777 151.674 55.559 151.181 56.6665 150.712C57.6997 150.298 58.8362 149.842 59.9107 149.411C62.0803 148.646 64.3022 148.04 66.559 147.595C66.9175 147.521 67.2319 147.308 67.4331 147.002C67.6344 146.696 67.706 146.323 67.6323 145.965C67.5984 145.786 67.529 145.616 67.428 145.464C67.3271 145.313 67.1967 145.183 67.0446 145.083C66.8926 144.983 66.7219 144.914 66.5428 144.881C66.3637 144.848 66.1799 144.852 66.0022 144.891C65.9386 144.9 65.8758 144.913 65.8141 144.931Z" fill="#E7F0F7"/>
</svg>
