<svg width="85" height="34" viewBox="0 0 85 34" fill="none" xmlns="http://www.w3.org/2000/svg">
<g clip-path="url(#clip0)">
<path d="M80.9893 18.1387C80.9893 18.5427 81.1071 18.9376 81.328 19.2735C81.5488 19.6093 81.8627 19.871 82.2299 20.0254C82.597 20.1798 83.001 20.2199 83.3906 20.1407C83.7802 20.0615 84.138 19.8666 84.4186 19.5806C84.6992 19.2945 84.89 18.9303 84.9669 18.5339C85.0439 18.1376 85.0034 17.7269 84.8507 17.3539C84.6979 16.981 84.4398 16.6625 84.109 16.4387C83.7782 16.215 83.3895 16.0961 82.9922 16.0971C82.7287 16.0971 82.4679 16.15 82.2245 16.2526C81.9812 16.3553 81.7602 16.5057 81.5742 16.6954C81.3881 16.885 81.2407 17.1101 81.1403 17.3578C81.0399 17.6055 80.9886 17.8708 80.9893 18.1387ZM81.3149 18.1387C81.3139 17.8 81.4118 17.4686 81.5963 17.1865C81.7808 16.9045 82.0435 16.6844 82.351 16.5543C82.6586 16.4243 82.9973 16.39 83.3241 16.4558C83.6509 16.5216 83.951 16.6847 84.1866 16.9242C84.4222 17.1637 84.5825 17.469 84.6472 17.8012C84.712 18.1335 84.6783 18.4779 84.5503 18.7906C84.4224 19.1034 84.206 19.3705 83.9286 19.558C83.6512 19.7456 83.3253 19.8452 82.9922 19.8442C82.5477 19.8429 82.1218 19.6628 81.8076 19.3432C81.4933 19.0237 81.3162 18.5906 81.3149 18.1387Z" fill="#020026"/>
<path d="M6.9065 19.6486H1.97325C1.69985 19.6728 1.42445 19.6409 1.16342 19.5547C0.902399 19.4685 0.661078 19.3299 0.453805 19.147C0.120211 18.7143 -0.0417328 18.1702 -5.42467e-05 17.622V5.33228C-0.0496923 4.7724 0.116586 4.21482 0.463672 3.77725C0.885918 3.42361 1.42857 3.25411 1.97325 3.30573H7.18277C7.84339 3.2977 8.5035 3.34637 9.15607 3.4512C9.6984 3.53583 10.2194 3.72663 10.6903 4.01302C11.4596 4.48071 12.0494 5.20073 12.3627 6.05462C12.5173 6.48707 12.5958 6.94384 12.5945 7.40399C12.5945 9.03928 11.7904 10.2331 10.1822 10.9856C12.2936 11.6711 13.3493 13.0088 13.3493 14.9986C13.3597 15.8735 13.1197 16.7327 12.6587 17.4716C12.2113 18.1808 11.5627 18.7352 10.7988 19.0617C10.2583 19.2847 9.69091 19.4332 9.11167 19.5031C8.37181 19.5936 7.62699 19.6355 6.88184 19.6285L6.9065 19.6486ZM3.25589 5.78876V10.0325H6.24051C6.87508 10.0566 7.50941 9.97876 8.12008 9.80174C8.55756 9.64741 8.91975 9.32764 9.1314 8.90886C9.31646 8.59183 9.41205 8.2291 9.40767 7.86046C9.44575 7.52952 9.38289 7.19468 9.22759 6.90128C9.07228 6.60788 8.83204 6.3701 8.53941 6.22016C7.70388 5.89779 6.81274 5.75104 5.91985 5.78876H3.25589ZM6.64504 12.365H3.25589V17.1656H6.75357C8.95381 17.1656 10.0539 16.358 10.0539 14.7327C10.0792 14.3816 10.0132 14.0299 9.86256 13.7129C9.71189 13.3959 9.48184 13.1248 9.19553 12.9269C8.41316 12.5024 7.53002 12.3079 6.64504 12.365Z" fill="#020026"/>
<path d="M16.7731 6.1198C16.3837 6.1296 16.005 5.9899 15.7124 5.72854C15.5661 5.58795 15.4526 5.4159 15.38 5.22498C15.3075 5.03405 15.2778 4.82906 15.2931 4.62497C15.2873 4.42444 15.3245 4.22502 15.402 4.04054C15.4795 3.85605 15.5955 3.6909 15.742 3.55651C16.0221 3.29098 16.3902 3.14234 16.7731 3.14016C17.1497 3.1323 17.5163 3.26427 17.8041 3.51136C17.958 3.64949 18.0786 3.82178 18.1564 4.0149C18.2343 4.20801 18.2673 4.41676 18.2531 4.62497C18.263 4.8291 18.2294 5.033 18.1545 5.22265C18.0795 5.41229 17.9651 5.58317 17.8189 5.72352C17.5349 5.98336 17.165 6.12485 16.783 6.1198H16.7731ZM18.2629 9.29508V18.0885C18.2962 18.5877 18.1449 19.0814 17.8387 19.473C17.7021 19.6251 17.5349 19.7454 17.3485 19.8259C17.162 19.9064 16.9607 19.9452 16.7583 19.9395C16.5558 19.942 16.3554 19.8982 16.1718 19.8114C15.9882 19.7246 15.8262 19.5969 15.6976 19.4379C15.4098 19.0511 15.2664 18.5728 15.2931 18.0885V9.38537C15.2529 8.898 15.3937 8.41301 15.6878 8.02597C15.8237 7.872 15.9916 7.75071 16.1793 7.67089C16.367 7.59107 16.5698 7.55472 16.7731 7.56448C16.9751 7.55885 17.1759 7.59711 17.3622 7.67669C17.5486 7.75627 17.716 7.87535 17.8535 8.02597C18.1436 8.38022 18.2869 8.83534 18.2531 9.29508" fill="#020026"/>
<path d="M31.9281 13.7595C31.9387 14.6145 31.7966 15.4643 31.5088 16.2676C31.2537 17.0043 30.8441 17.6758 30.3083 18.2354C29.7724 18.7949 29.1232 19.2292 28.4058 19.5081C27.6174 19.8082 26.7809 19.9562 25.9391 19.9445C25.0962 19.9601 24.2584 19.8084 23.4725 19.4981C22.7609 19.2114 22.117 18.775 21.5831 18.2174C21.0491 17.6597 20.6372 16.9936 20.3744 16.2626C20.0915 15.4582 19.9529 14.6087 19.965 13.7545C19.9551 12.8918 20.0954 12.0342 20.3794 11.2213C20.6399 10.4884 21.0501 9.81997 21.5831 9.25995C22.1189 8.71607 22.7632 8.29529 23.4725 8.02596C24.2607 7.72475 25.0971 7.57507 25.9391 7.58453C26.7816 7.57502 27.6183 7.72646 28.4058 8.03097C29.1221 8.3138 29.7711 8.74809 30.31 9.30509C30.8456 9.86494 31.2562 10.5356 31.5137 11.2715C31.7978 12.0757 31.9381 12.9251 31.9281 13.7796V13.7595ZM28.9188 13.7796C28.9877 12.7469 28.7056 11.7215 28.1196 10.8752C27.8635 10.54 27.5326 10.2715 27.1544 10.0918C26.7761 9.91214 26.3613 9.82646 25.9441 9.84183C25.3921 9.83224 24.8502 9.99316 24.3901 10.3033C23.9184 10.6404 23.5574 11.1141 23.3541 11.6627C23.0997 12.3309 22.9757 13.0431 22.989 13.7595C22.973 14.4675 23.0954 15.1717 23.3492 15.8312C23.5485 16.3779 23.9041 16.8513 24.3704 17.1906C24.8338 17.5107 25.384 17.6755 25.9441 17.6621C26.3614 17.6783 26.7765 17.593 27.1549 17.4133C27.5333 17.2336 27.864 16.9646 28.1196 16.6288C28.7032 15.7939 28.9902 14.7821 28.9336 13.7595" fill="#020026"/>
<path d="M48.7109 13.0422V16.1522C48.7223 16.4909 48.6824 16.8292 48.5925 17.1555C48.5065 17.4174 48.3532 17.6512 48.1485 17.8327C47.8984 18.0588 47.6217 18.2526 47.3247 18.4095C46.4364 18.9039 45.4943 19.2911 44.5177 19.5633C43.5511 19.8172 42.5559 19.9403 41.5577 19.9295C40.4043 19.9457 39.2576 19.7485 38.1735 19.3476C37.1962 18.9856 36.3088 18.4103 35.5737 17.6621C34.841 16.9004 34.279 15.9866 33.926 14.9835C33.5286 13.8575 33.3331 12.6682 33.3488 11.4721C33.3343 10.2777 33.5229 9.08981 33.9062 7.96074C34.2527 6.95143 34.8155 6.03305 35.5539 5.27204C36.3033 4.51893 37.2059 3.94191 38.1982 3.58158C39.339 3.17651 40.542 2.98283 41.7501 3.00973C42.7246 2.99467 43.6947 3.14383 44.6213 3.45115C45.3605 3.69403 46.0495 4.07322 46.6538 4.56977C47.1307 4.97288 47.5276 5.46493 47.8229 6.01946C48.0601 6.42459 48.1957 6.88283 48.2176 7.35378C48.2209 7.5547 48.1826 7.75408 48.1053 7.939C48.028 8.12393 47.9133 8.29027 47.7687 8.42725C47.4769 8.71502 47.0849 8.87371 46.6784 8.86868C46.4443 8.86931 46.2138 8.81069 46.0075 8.69813C45.7924 8.58478 45.6065 8.42153 45.4649 8.22159C45.1586 7.71282 44.8173 7.22671 44.4437 6.76688C44.1295 6.41436 43.7464 6.13245 43.3189 5.9392C42.7459 5.69719 42.1285 5.5826 41.5084 5.60312C40.8161 5.59238 40.1292 5.7273 39.4907 5.9994C38.912 6.25331 38.3975 6.63751 37.986 7.12303C37.5369 7.66544 37.2011 8.29526 36.9994 8.97402C36.7686 9.75821 36.6555 10.5733 36.6639 11.3918C36.6639 13.3114 37.098 14.7895 37.9663 15.8262C38.417 16.3467 38.9779 16.7566 39.6067 17.025C40.2356 17.2935 40.9161 17.4135 41.5972 17.3762C42.3165 17.3815 43.0328 17.2801 43.7234 17.0752C44.4227 16.8591 45.0987 16.5717 45.7411 16.2175V13.5689H43.2153C42.7387 13.5977 42.2629 13.501 41.834 13.288C41.6727 13.194 41.5409 13.0556 41.4536 12.8888C41.3663 12.7219 41.3272 12.5334 41.3406 12.3449C41.337 12.1746 41.37 12.0056 41.4373 11.8496C41.5046 11.6937 41.6046 11.5545 41.7304 11.442C42.0264 11.1902 42.4058 11.0628 42.791 11.0859H46.4811C46.8693 11.0787 47.2568 11.1191 47.6355 11.2062C47.9463 11.2871 48.2168 11.4818 48.3952 11.753C48.627 12.1401 48.7371 12.5898 48.7109 13.0422Z" fill="#020026"/>
<path d="M58.4986 18.1939C57.8584 18.7233 57.1517 19.1635 56.397 19.5031C55.6756 19.8028 54.9021 19.9512 54.1228 19.9395C53.4218 19.9548 52.7276 19.7964 52.1002 19.478C51.5461 19.1942 51.08 18.7602 50.7534 18.224C50.4444 17.7071 50.2822 17.1133 50.2847 16.5084C50.2655 15.7223 50.5446 14.9589 51.0642 14.3765C51.6351 13.7593 52.3854 13.3444 53.2052 13.1927L54.6211 12.8917C55.3709 12.7412 56.0172 12.5958 56.5549 12.4653C57.0926 12.3349 57.6748 12.1794 58.3013 11.9938C58.3112 11.3624 58.1398 10.7418 57.808 10.208C57.5284 9.8268 56.9463 9.63618 56.0616 9.63618C55.4718 9.60122 54.8825 9.71314 54.3448 9.96223C53.9377 10.2064 53.5982 10.5515 53.3582 10.9655C53.0819 11.4019 52.8648 11.6878 52.776 11.8283C52.6755 11.9132 52.5586 11.9758 52.4329 12.0121C52.3071 12.0484 52.1753 12.0575 52.0459 12.039C51.7242 12.0443 51.4124 11.9261 51.1727 11.7079C51.0544 11.6025 50.9603 11.4719 50.8972 11.3254C50.8341 11.1789 50.8035 11.02 50.8077 10.8601C50.8197 10.2904 51.0156 9.74049 51.3651 9.29508C51.8274 8.71671 52.4364 8.27786 53.1263 8.02597C54.0723 7.66784 55.0771 7.49756 56.0863 7.52435C57.1457 7.49002 58.202 7.66023 59.1991 8.02597C59.9054 8.29509 60.4794 8.83552 60.7975 9.53084C61.1512 10.3908 61.3194 11.3179 61.2908 12.2496C61.2908 12.9619 61.2908 13.5689 61.2908 14.0655C61.2908 14.5621 61.2908 15.1189 61.2908 15.7259C61.2963 16.337 61.3911 16.9439 61.572 17.5267C61.709 17.9163 61.8033 18.32 61.8532 18.7306C61.8467 18.8969 61.804 19.0597 61.7281 19.2072C61.6521 19.3547 61.5449 19.4832 61.4142 19.5834C61.1453 19.8346 60.7927 19.9727 60.4275 19.9696C60.0756 19.9501 59.7457 19.7895 59.5099 19.5232C59.1402 19.1313 58.8188 18.695 58.5529 18.224L58.4986 18.1939ZM58.3556 13.8448C57.731 14.0555 57.0931 14.2231 56.4464 14.3464C55.6077 14.527 55.0305 14.6624 54.7099 14.7427C54.3695 14.838 54.0543 15.0094 53.7874 15.2443C53.6412 15.3709 53.5256 15.5299 53.4495 15.709C53.3734 15.8882 53.3388 16.0827 53.3483 16.2777C53.3416 16.4973 53.3823 16.7157 53.4676 16.9177C53.5528 17.1196 53.6805 17.3001 53.8416 17.4464C54.2088 17.7862 54.6923 17.9663 55.1884 17.9481C55.7573 17.9533 56.3191 17.8191 56.8262 17.5568C57.279 17.335 57.6605 16.9871 57.9264 16.5536C58.2466 15.8462 58.3857 15.068 58.3309 14.2912L58.3556 13.8448Z" fill="#020026"/>
<path d="M65.119 6.1198C64.7297 6.1296 64.351 5.9899 64.0584 5.72854C63.9079 5.59007 63.7899 5.41904 63.7131 5.22805C63.6362 5.03706 63.6025 4.83097 63.6144 4.62497C63.6096 4.4241 63.6476 4.22455 63.726 4.04009C63.8044 3.85563 63.9211 3.69065 64.0682 3.55651C64.3533 3.28625 64.7293 3.13726 65.119 3.14016C65.4929 3.13614 65.8556 3.26976 66.1402 3.51638C66.2943 3.65372 66.4157 3.82488 66.4952 4.01694C66.5747 4.20899 66.6102 4.41691 66.599 4.62497C66.609 4.82956 66.5749 5.0339 66.4991 5.22367C66.4232 5.41344 66.3075 5.58404 66.16 5.72352C65.8777 5.98304 65.5094 6.12458 65.1289 6.1198H65.119ZM66.6089 9.29508V18.0885C66.6452 18.5888 66.4916 19.0843 66.1797 19.473C66.044 19.6249 65.8777 19.7453 65.6921 19.8258C65.5065 19.9063 65.306 19.9451 65.1042 19.9395C64.9017 19.9424 64.7012 19.8988 64.5176 19.8119C64.3339 19.7251 64.1719 19.5972 64.0436 19.4379C63.7483 19.0451 63.6029 18.5568 63.6341 18.0634V9.38537C63.5986 8.89611 63.7447 8.41109 64.0436 8.02597C64.1766 7.87506 64.3404 7.75555 64.5237 7.67583C64.7069 7.59611 64.905 7.5581 65.1042 7.56448C65.3055 7.55892 65.5056 7.59723 65.6911 7.67683C65.8766 7.75643 66.0432 7.87548 66.1797 8.02597C66.4824 8.37452 66.6367 8.83094 66.6089 9.29508Z" fill="#020026"/>
<path d="M76.5888 18.1939C75.9509 18.724 75.2457 19.1644 74.4922 19.5031C73.7707 19.8028 72.9972 19.9513 72.2179 19.9395C71.517 19.9542 70.8229 19.7959 70.1953 19.4781C69.6413 19.1943 69.1752 18.7603 68.8485 18.224C68.5309 17.7097 68.3601 17.1157 68.3552 16.5084C68.3385 15.7228 68.6173 14.9603 69.1347 14.3765C69.7055 13.7593 70.4559 13.3444 71.2757 13.1927L72.6915 12.8917C73.4414 12.7413 74.0876 12.5958 74.6254 12.4654C75.1631 12.3349 75.7452 12.1794 76.3717 11.9938C76.3816 11.3625 76.2102 10.7418 75.8784 10.2081C75.5989 9.82682 75.0167 9.63621 74.132 9.63621C73.5423 9.60185 72.9531 9.71375 72.4153 9.96226C72.0082 10.2064 71.6687 10.5516 71.4286 10.9655C71.1524 11.4019 70.9353 11.6878 70.8465 11.8283C70.746 11.9132 70.6291 11.9759 70.5033 12.0121C70.3776 12.0484 70.2458 12.0576 70.1164 12.039C69.7947 12.0443 69.4829 11.9261 69.2432 11.7079C69.1248 11.6026 69.0307 11.472 68.9676 11.3255C68.9045 11.1789 68.874 11.0201 68.8781 10.8602C68.8901 10.2904 69.086 9.74052 69.4356 9.2951C69.9033 8.71375 70.5195 8.27465 71.2165 8.026C72.1625 7.66787 73.1673 7.49759 74.1764 7.52438C75.2327 7.48264 76.2872 7.64433 77.2844 8.00092C77.9906 8.27004 78.5646 8.81047 78.8828 9.50579C79.2364 10.3658 79.4046 11.2929 79.3761 12.2246C79.3761 12.9369 79.3761 13.5438 79.3761 14.0405C79.3761 14.5371 79.3761 15.0939 79.3761 15.7008C79.3816 16.312 79.4764 16.9189 79.6573 17.5017C79.7942 17.8912 79.8885 18.295 79.9385 18.7056C79.9242 18.8792 79.8705 19.0471 79.7814 19.1959C79.6924 19.3448 79.5705 19.4706 79.4254 19.5633C79.1571 19.8155 78.8041 19.9536 78.4388 19.9496C78.0869 19.9301 77.7569 19.7695 77.5212 19.5031C77.1499 19.1125 76.8284 18.676 76.5641 18.2039L76.5888 18.1939ZM76.3668 13.8248C75.7422 14.0355 75.1044 14.2031 74.4576 14.3264C73.619 14.507 73.0418 14.6424 72.7211 14.7227C72.3808 14.818 72.0656 14.9894 71.7986 15.2243C71.6525 15.3508 71.5369 15.5098 71.4608 15.689C71.3846 15.8681 71.35 16.0627 71.3596 16.2576C71.3559 16.4792 71.4005 16.6989 71.49 16.9009C71.5796 17.103 71.7119 17.2824 71.8775 17.4264C72.2447 17.7662 72.7282 17.9462 73.2243 17.928C73.7932 17.9333 74.355 17.799 74.8622 17.5368C75.3149 17.315 75.6964 16.9671 75.9623 16.5335C76.2825 15.8261 76.4216 15.0479 76.3668 14.2712V13.8248Z" fill="#020026"/>
<path d="M82.8047 18.249H82.6517V18.9362C82.6569 19.0059 82.6377 19.0752 82.5975 19.1319C82.5781 19.1534 82.5545 19.1704 82.5281 19.1816C82.5016 19.1929 82.4731 19.1982 82.4445 19.1971C82.4151 19.1993 82.3855 19.1945 82.3581 19.1832C82.3307 19.1719 82.3063 19.1543 82.2867 19.1319C82.2475 19.0747 82.2284 19.0058 82.2324 18.9362V17.2959C82.2252 17.2595 82.2269 17.2217 82.2375 17.1861C82.2481 17.1505 82.2672 17.1181 82.293 17.0918C82.3189 17.0654 82.3508 17.046 82.3858 17.0353C82.4209 17.0245 82.458 17.0227 82.4939 17.0301H83.1796C83.2617 17.0242 83.3441 17.0242 83.4262 17.0301C83.4893 17.0338 83.5511 17.0491 83.6088 17.0752C83.6741 17.1047 83.7328 17.1474 83.7814 17.2006C83.8316 17.2518 83.8703 17.3134 83.8949 17.3812C83.923 17.4512 83.9365 17.5264 83.9344 17.6019C83.9409 17.741 83.895 17.8773 83.8061 17.9832C83.6954 18.0889 83.5563 18.1588 83.4065 18.1838C83.4863 18.232 83.5579 18.293 83.6186 18.3644C83.6881 18.4429 83.7493 18.5287 83.8012 18.6202C83.8493 18.6974 83.8921 18.7779 83.9294 18.861C83.9519 18.9085 83.9669 18.9593 83.9738 19.0115C83.9728 19.0408 83.9624 19.069 83.9442 19.0918C83.9291 19.1208 83.9048 19.1438 83.8752 19.157C83.844 19.1759 83.8078 19.1847 83.7716 19.182C83.7278 19.1842 83.6845 19.1719 83.6482 19.1469C83.6156 19.1237 83.5872 19.0949 83.5644 19.0617L83.4706 18.9112L83.3029 18.6202C83.2539 18.5352 83.1978 18.4546 83.1352 18.3794C83.0976 18.3308 83.0483 18.2928 82.9921 18.2691C82.9325 18.2451 82.8688 18.2332 82.8047 18.234V18.249ZM83.0464 17.3361H82.6517V17.928H83.0365C83.123 17.9294 83.2092 17.9193 83.293 17.8979C83.3546 17.8879 83.4105 17.8559 83.4509 17.8076C83.4923 17.7571 83.5134 17.6926 83.5101 17.627C83.5112 17.5718 83.4957 17.5175 83.4657 17.4715C83.4342 17.4261 83.3917 17.3898 83.3424 17.3662C83.2459 17.3403 83.146 17.3302 83.0464 17.3361Z" fill="#020026"/>
<path d="M65.119 6.36063C65.5111 6.35675 65.8985 6.2737 66.2588 6.1163C66.6191 5.95889 66.945 5.73027 67.2176 5.44372C67.4902 5.15717 67.7042 4.81839 67.847 4.44706C67.9897 4.07573 68.0585 3.67926 68.0494 3.28067C68.0494 2.88937 67.9736 2.50191 67.8263 2.14041C67.6791 1.7789 67.4632 1.45043 67.1911 1.17374C66.919 0.897057 66.5959 0.677578 66.2404 0.527837C65.8849 0.378096 65.5038 0.301025 65.119 0.301025C64.7342 0.301025 64.3532 0.378096 63.9976 0.527837C63.6421 0.677578 63.3191 0.897057 63.047 1.17374C62.7748 1.45043 62.559 1.7789 62.4117 2.14041C62.2645 2.50191 62.1887 2.88937 62.1887 3.28067C62.1795 3.67926 62.2483 4.07573 62.3911 4.44706C62.5339 4.81839 62.7478 5.15717 63.0205 5.44372C63.2931 5.73027 63.619 5.95889 63.9793 6.1163C64.3395 6.2737 64.7269 6.35675 65.119 6.36063Z" fill="#020026"/>
<path d="M16.7731 6.16495C17.1652 6.16107 17.5526 6.07802 17.9129 5.92062C18.2731 5.76321 18.599 5.53459 18.8717 5.24804C19.1443 4.96149 19.3582 4.62271 19.501 4.25138C19.6438 3.88005 19.7126 3.48358 19.7034 3.08499C19.7034 2.69369 19.6276 2.30623 19.4804 1.94473C19.3331 1.58322 19.1173 1.25475 18.8452 0.978063C18.573 0.701378 18.25 0.481899 17.8945 0.332158C17.539 0.182417 17.1579 0.105347 16.7731 0.105347C16.3883 0.105347 16.0072 0.182417 15.6517 0.332158C15.2962 0.481899 14.9731 0.701378 14.701 0.978063C14.4289 1.25475 14.2131 1.58322 14.0658 1.94473C13.9185 2.30623 13.8427 2.69369 13.8427 3.08499C13.8336 3.48358 13.9024 3.88005 14.0452 4.25138C14.1879 4.62271 14.4019 4.96149 14.6745 5.24804C14.9471 5.53459 15.2731 5.76321 15.6333 5.92062C15.9936 6.07802 16.381 6.16107 16.7731 6.16495Z" fill="#020026"/>
<path d="M4.60768 29.6208H2.63438V32.6707C2.66269 33.0318 2.55514 33.3904 2.33345 33.6739C2.23773 33.7848 2.11914 33.8729 1.98612 33.9319C1.85309 33.9908 1.70892 34.0192 1.56386 34.015C1.41755 34.0214 1.2717 33.9945 1.13688 33.9363C1.00206 33.8782 0.881659 33.7903 0.784408 33.679C0.56492 33.3944 0.459203 33.0361 0.488412 32.6757V24.3839C0.473811 24.203 0.495109 24.021 0.551041 23.8487C0.606973 23.6763 0.696399 23.5172 0.814007 23.3806C1.10718 23.1492 1.47518 23.0382 1.84506 23.0696H4.60768C5.23805 23.0502 5.86821 23.1143 6.48232 23.2602C6.89834 23.3741 7.28313 23.5835 7.6071 23.8722C7.92413 24.158 8.17083 24.5153 8.32735 24.9156C8.49684 25.3583 8.5806 25.8301 8.57402 26.3051C8.60817 26.772 8.53705 27.2406 8.36606 27.6752C8.19507 28.1099 7.92874 28.4991 7.58737 28.8132C6.9296 29.3817 5.94295 29.6643 4.62741 29.661L4.60768 29.6208ZM4.08476 24.6849H2.63931V27.9755H4.08476C4.51293 27.9876 4.94042 27.9335 5.3526 27.815C5.66088 27.7281 5.93391 27.5436 6.13206 27.2883C6.32601 27.0067 6.4247 26.6687 6.41325 26.3252C6.43041 25.897 6.28161 25.4791 5.99886 25.1614C5.693 24.8454 5.05661 24.6849 4.09956 24.6849" fill="#00002D"/>
<path d="M11.0752 31.1006V32.776C11.0994 33.1072 10.9989 33.4353 10.794 33.694C10.7028 33.7935 10.5919 33.8722 10.4686 33.9249C10.3453 33.9776 10.2124 34.0032 10.0787 34C9.94623 34.0048 9.81435 33.9798 9.69243 33.9269C9.57051 33.8741 9.46153 33.7945 9.37325 33.694C9.17267 33.4352 9.07417 33.1097 9.09698 32.781V27.198C9.09698 26.2951 9.41764 25.8486 10.059 25.8486C10.1939 25.8371 10.3295 25.8599 10.4535 25.9151C10.5776 25.9703 10.6861 26.056 10.7694 26.1646C10.932 26.4438 11.0157 26.7632 11.0111 27.0876C11.1996 26.7374 11.4448 26.422 11.7363 26.1546C12.0181 25.934 12.3676 25.822 12.7229 25.8386C13.1438 25.8405 13.5575 25.9491 13.9266 26.1546C14.0937 26.2215 14.2382 26.3362 14.3424 26.4849C14.4466 26.6336 14.5061 26.8099 14.5137 26.9923C14.5169 27.1052 14.4961 27.2174 14.4527 27.3213C14.4093 27.4252 14.3443 27.5183 14.2621 27.5943C14.1925 27.6685 14.1092 27.7279 14.0169 27.7693C13.9246 27.8106 13.8252 27.8329 13.7244 27.835C13.5458 27.809 13.3705 27.7636 13.2015 27.6996C12.9665 27.6263 12.722 27.5891 12.4763 27.5892C12.2215 27.5774 11.971 27.6593 11.7708 27.82C11.5724 28.0011 11.4258 28.2333 11.3465 28.4922C11.2354 28.8508 11.1642 29.221 11.1344 29.5957C11.095 30.0121 11.0752 30.5237 11.0752 31.1006Z" fill="#00002D"/>
<path d="M22.2737 29.9218C22.2793 30.4859 22.1857 31.0465 21.9974 31.5772C21.8294 32.0618 21.5621 32.5047 21.213 32.8764C20.8636 33.2443 20.4393 33.5302 19.9698 33.7141C19.4514 33.9132 18.9009 34.0119 18.3468 34.005C17.7953 34.0132 17.2475 33.9127 16.7336 33.7091C16.2669 33.5203 15.8449 33.2331 15.4954 32.8663C15.1417 32.4984 14.8707 32.0569 14.7011 31.5721C14.5137 31.0431 14.4218 30.484 14.4298 29.9218C14.4227 29.3547 14.5146 28.7909 14.7011 28.2564C14.8711 27.773 15.1401 27.3319 15.4905 26.9622C15.8388 26.6001 16.2593 26.3178 16.7238 26.1345C17.2396 25.9389 17.7865 25.842 18.3369 25.8486C18.8912 25.8398 19.4421 25.9386 19.96 26.1396C20.4323 26.3226 20.8597 26.6082 21.2125 26.9764C21.5652 27.3446 21.8347 27.7865 22.0023 28.2715C22.1889 28.8007 22.2808 29.3596 22.2737 29.9218ZM20.3004 29.9218C20.3395 29.2435 20.1517 28.5717 19.7676 28.0156C19.6007 27.7941 19.3844 27.6163 19.1364 27.4968C18.8885 27.3772 18.6161 27.3195 18.3419 27.3284C17.9789 27.3234 17.623 27.4301 17.3207 27.6344C17.0102 27.8595 16.7731 28.174 16.6399 28.5373C16.474 28.979 16.3936 29.4491 16.4031 29.9218C16.393 30.3913 16.4735 30.8582 16.6399 31.2962C16.7707 31.6582 17.0042 31.9724 17.3108 32.1992C17.6144 32.4093 17.9748 32.518 18.3419 32.5102C18.6163 32.5203 18.8891 32.4632 19.1372 32.3435C19.3854 32.2239 19.6016 32.0454 19.7676 31.823C20.1506 31.2683 20.3384 30.5984 20.3004 29.9218Z" fill="#00002D"/>
<path d="M24.5528 23.0445H27.35C27.9808 23.0342 28.6105 23.1033 29.2246 23.2502C29.749 23.3928 30.2336 23.6573 30.6404 24.0227C31.7422 24.9858 32.2931 26.4455 32.2931 28.4019C32.2991 28.9965 32.2428 29.5901 32.1254 30.1726C32.0335 30.6767 31.8671 31.1638 31.632 31.6173C31.4021 32.0485 31.1018 32.437 30.744 32.766C30.4681 33.0241 30.1533 33.2358 29.8117 33.393C29.4657 33.5512 29.1008 33.6625 28.7263 33.7241C28.2922 33.7919 27.8533 33.8238 27.4141 33.8194H24.5972C24.2924 33.8385 23.988 33.7763 23.7142 33.6388C23.526 33.5296 23.3878 33.3494 23.3294 33.1372C23.2637 32.8597 23.2339 32.5748 23.2406 32.2895V24.3839C23.2061 24.2008 23.2161 24.012 23.2697 23.8338C23.3234 23.6556 23.4191 23.4934 23.5484 23.3614C23.6778 23.2294 23.8369 23.1315 24.0119 23.0763C24.187 23.021 24.3727 23.0102 24.5528 23.0445ZM25.3865 24.7751V32.1039H27.0096C27.3697 32.1039 27.646 32.1039 27.8482 32.0738C28.0639 32.0525 28.2761 32.0036 28.4797 31.9283C28.6854 31.856 28.8761 31.7454 29.0421 31.6022C29.759 30.9836 30.1175 29.9201 30.1175 28.4119C30.1626 27.5857 29.9925 26.7621 29.6242 26.0242C29.3716 25.5548 28.9568 25.1973 28.4599 25.0209C27.9144 24.8651 27.3492 24.7925 26.7826 24.8052L25.3865 24.7751Z" fill="#00002D"/>
<path d="M38.81 30.4184H34.9522C34.9487 30.8352 35.0399 31.2472 35.2186 31.6223C35.3776 31.9461 35.6218 32.2187 35.924 32.4099C36.2224 32.589 36.5643 32.6794 36.9107 32.6707C37.1199 32.6791 37.3292 32.6571 37.5323 32.6055C37.7336 32.549 37.925 32.461 38.0996 32.3446C38.2717 32.2264 38.4365 32.0974 38.5929 31.9584C38.7459 31.8179 38.9481 31.6323 39.1899 31.3966C39.3153 31.3033 39.4688 31.2572 39.624 31.2662C39.8038 31.2569 39.9803 31.3179 40.1173 31.4367C40.1809 31.4974 40.2306 31.5715 40.263 31.6538C40.2954 31.7362 40.3097 31.8247 40.3048 31.9132C40.2911 32.1403 40.2197 32.3598 40.0976 32.5503C39.9278 32.8119 39.714 33.0412 39.4661 33.2275C39.145 33.4697 38.7866 33.6562 38.4055 33.7793C37.9281 33.9386 37.4278 34.0149 36.9255 34.005C36.384 34.0378 35.8417 33.9567 35.3324 33.7668C34.8232 33.5769 34.3578 33.2824 33.9655 32.9014C33.6003 32.4972 33.3187 32.0225 33.1373 31.5055C32.956 30.9885 32.8786 30.4397 32.9098 29.8917C32.9027 29.3304 32.9912 28.772 33.1713 28.2414C33.33 27.7564 33.589 27.3117 33.931 26.9371C34.2711 26.5684 34.6895 26.2836 35.1545 26.1045C35.6725 25.9039 36.2233 25.8052 36.7775 25.8135C37.4674 25.7997 38.1485 25.9728 38.7508 26.3151C39.2842 26.61 39.7253 27.0516 40.0236 27.5893C40.2993 28.0837 40.4469 28.6412 40.4528 29.2095C40.4528 29.7111 40.3146 30.0422 40.0285 30.2127C39.6516 30.3817 39.2411 30.459 38.8297 30.4385L38.81 30.4184ZM34.9719 29.2998H38.5288C38.5319 28.7314 38.34 28.1797 37.9861 27.7397C37.8249 27.571 37.6303 27.439 37.4151 27.3525C37.1999 27.266 36.9691 27.2271 36.738 27.2381C36.513 27.2289 36.2887 27.269 36.0801 27.3555C35.8716 27.442 35.6838 27.5731 35.5294 27.7397C35.1783 28.1738 34.9772 28.7131 34.9571 29.2747" fill="#00002D"/>
<path d="M43.7432 26.9573V27.198C44.0432 26.7819 44.4309 26.4392 44.8778 26.1948C45.3181 25.9696 45.8059 25.8577 46.2986 25.8687C46.7851 25.8584 47.266 25.9759 47.6947 26.2098C48.0941 26.4297 48.4151 26.772 48.6123 27.188C48.7408 27.4353 48.8259 27.7035 48.8639 27.9806C48.9078 28.3416 48.9275 28.7053 48.9231 29.0691V32.8012C48.9473 33.1292 48.8506 33.4546 48.6518 33.7141C48.5597 33.8112 48.4494 33.8885 48.3273 33.9412C48.2053 33.994 48.074 34.0211 47.9414 34.0211C47.8087 34.0211 47.6775 33.994 47.5554 33.9412C47.4334 33.8885 47.323 33.8112 47.231 33.7141C47.0328 33.456 46.9346 33.133 46.9547 32.8062V29.4403C46.9792 28.9246 46.8881 28.41 46.6883 27.9354C46.5735 27.7551 46.4103 27.6119 46.2179 27.523C46.0255 27.4341 45.8121 27.4032 45.603 27.4338C45.2588 27.4316 44.9232 27.5425 44.646 27.7498C44.3566 27.9606 44.1351 28.2539 44.0096 28.5926C43.8874 29.1419 43.8393 29.7055 43.8665 30.268V32.7761C43.8907 33.1073 43.7901 33.4354 43.5853 33.6941C43.4937 33.7944 43.382 33.8737 43.2578 33.9265C43.1336 33.9792 42.9996 34.0043 42.865 34.0001C42.7326 34.0032 42.6011 33.9765 42.48 33.9219C42.3588 33.8672 42.2511 33.786 42.1645 33.684C41.9681 33.4252 41.8716 33.1023 41.8932 32.7761V26.9874C41.8681 26.681 41.9541 26.3759 42.1349 26.1296C42.2201 26.0348 42.3249 25.9605 42.4418 25.9119C42.5587 25.8634 42.6847 25.8418 42.8108 25.8487C42.9829 25.8424 43.1535 25.8841 43.3041 25.9691C43.4483 26.0601 43.5645 26.1905 43.6396 26.3453C43.7296 26.536 43.7736 26.7458 43.7678 26.9573" fill="#00002D"/>
<path d="M50.8471 26.0242H51.0642V24.8153C51.0642 24.4943 51.0642 24.2384 51.0642 24.0579C51.0737 23.8818 51.1226 23.7102 51.2072 23.5562C51.2873 23.4186 51.4012 23.3046 51.5378 23.2252C51.6881 23.1385 51.8582 23.0935 52.0311 23.0948C52.2841 23.0984 52.526 23.2008 52.7069 23.3807C52.8402 23.5035 52.9303 23.6674 52.9635 23.8472C53.0068 24.1056 53.025 24.3677 53.0177 24.6297V25.9991H53.7725C54.0019 25.9821 54.2292 26.0538 54.4089 26.1998C54.4791 26.2623 54.5353 26.3395 54.5736 26.4261C54.6119 26.5126 54.6314 26.6065 54.6309 26.7014C54.6406 26.8172 54.6156 26.9333 54.5593 27.0345C54.5029 27.1356 54.4178 27.2171 54.3152 27.2683C54.0314 27.3892 53.7246 27.444 53.4173 27.4288H53.0473V31.1207C53.0428 31.362 53.0544 31.6033 53.0819 31.8431C53.0948 31.9954 53.1553 32.1395 53.2545 32.2544C53.3159 32.3117 53.3885 32.3551 53.4676 32.3819C53.5467 32.4087 53.6304 32.4183 53.7133 32.4099C53.8793 32.4062 54.0445 32.386 54.2066 32.3497C54.359 32.315 54.5143 32.2948 54.6704 32.2895C54.7509 32.2896 54.8306 32.3066 54.9045 32.3394C54.9783 32.3722 55.0447 32.4201 55.0996 32.4801C55.1649 32.545 55.2159 32.6233 55.2491 32.7098C55.2822 32.7963 55.2969 32.889 55.292 32.9817C55.2934 33.1497 55.2427 33.3138 55.147 33.4507C55.0514 33.5876 54.9156 33.6903 54.7592 33.7442C54.2901 33.9386 53.7852 34.0276 53.2792 34.005C52.7917 34.0356 52.3057 33.9242 51.8782 33.684C51.5702 33.482 51.347 33.171 51.2516 32.8112C51.1392 32.3181 51.0894 31.8123 51.1036 31.3063V27.4689H50.8126C50.5776 27.4874 50.3446 27.4138 50.1614 27.2632C50.0903 27.2012 50.0332 27.1242 49.994 27.0376C49.9549 26.9511 49.9345 26.8569 49.9344 26.7616C49.9344 26.6653 49.9556 26.5702 49.9966 26.4834C50.0376 26.3965 50.0973 26.3202 50.1712 26.26C50.3675 26.113 50.6089 26.0419 50.852 26.0593" fill="#00002D"/>
<path d="M57.2751 24.9106C57.0169 24.9173 56.7654 24.8261 56.5696 24.6548C56.4692 24.5643 56.3904 24.4518 56.3391 24.3258C56.2878 24.1998 56.2654 24.0635 56.2736 23.9274C56.2714 23.7953 56.2971 23.6642 56.3491 23.543C56.401 23.4219 56.4779 23.3135 56.5746 23.2251C56.7651 23.0558 57.0097 22.9625 57.2628 22.9625C57.5159 22.9625 57.7604 23.0558 57.951 23.2251C58.0517 23.3153 58.1307 23.4278 58.182 23.5539C58.2333 23.6799 58.2555 23.8163 58.2469 23.9525C58.2549 24.0869 58.2334 24.2215 58.1839 24.3464C58.1344 24.4714 58.0582 24.5835 57.9608 24.6748C57.7736 24.848 57.5281 24.9414 57.2751 24.9357V24.9106ZM58.2617 27.0074V32.781C58.2851 33.1106 58.1846 33.4369 57.9805 33.694C57.8904 33.7952 57.7798 33.8753 57.6563 33.929C57.5329 33.9827 57.3995 34.0086 57.2652 34.005C57.1315 34.0083 56.9988 33.9812 56.8768 33.9256C56.7547 33.8701 56.6464 33.7875 56.5598 33.684C56.3645 33.4265 56.2681 33.1055 56.2884 32.781V27.0425C56.2664 26.7209 56.3631 26.4025 56.5598 26.1496C56.6487 26.0499 56.7578 25.9709 56.8795 25.9181C57.0013 25.8652 57.1329 25.8398 57.2652 25.8436C57.3989 25.8404 57.5318 25.8659 57.6551 25.9187C57.7784 25.9714 57.8893 26.0501 57.9805 26.1496C58.1784 26.3787 58.2794 26.6779 58.2617 26.9823" fill="#00002D"/>
<path d="M66.4905 31.3815C66.5116 31.8893 66.3694 32.3901 66.0854 32.8083C65.8014 33.2265 65.3912 33.5392 64.9168 33.699C64.3104 33.9167 63.6702 34.0203 63.0273 34.005C62.4048 34.0206 61.7856 33.908 61.207 33.6739C60.7687 33.5028 60.3825 33.2173 60.0871 32.8463C59.8617 32.5613 59.7351 32.2086 59.727 31.843C59.7247 31.7381 59.7441 31.6338 59.7841 31.537C59.824 31.4402 59.8836 31.353 59.9589 31.2812C60.0342 31.2026 60.125 31.141 60.2253 31.1004C60.3255 31.0597 60.4331 31.041 60.541 31.0454C60.7183 31.0296 60.8949 31.0834 61.0343 31.1959C61.1613 31.3249 61.2693 31.4719 61.355 31.6323C61.5255 31.9812 61.7958 32.2694 62.1304 32.4592C62.4649 32.649 62.8481 32.7314 63.2296 32.6958C63.5776 32.7129 63.9223 32.62 64.2163 32.4299C64.3257 32.3682 64.418 32.2791 64.4844 32.1712C64.5509 32.0633 64.5893 31.94 64.5961 31.8129C64.6069 31.6609 64.5763 31.5088 64.5075 31.3734C64.4387 31.238 64.3345 31.1245 64.2064 31.0454C63.7976 30.8286 63.3609 30.6716 62.9089 30.5789C62.3418 30.4445 61.786 30.265 61.2464 30.0422C60.8401 29.8835 60.4766 29.629 60.1858 29.2998C59.9256 28.9804 59.7888 28.5756 59.801 28.1611C59.8029 27.7537 59.9268 27.3565 60.1562 27.0224C60.42 26.6436 60.7821 26.3467 61.202 26.1646C61.7296 25.9405 62.2979 25.8328 62.8695 25.8486C63.3332 25.8416 63.7958 25.8956 64.2459 26.0091C64.6055 26.0956 64.9487 26.2414 65.2621 26.4405C65.5076 26.5958 65.7192 26.8007 65.8837 27.0425C66.0194 27.2309 66.0966 27.4562 66.1057 27.6896C66.1097 27.795 66.0915 27.9001 66.0523 27.9979C66.0132 28.0956 65.954 28.1838 65.8788 28.2564C65.6997 28.4126 65.4679 28.4917 65.2325 28.4771C65.0535 28.4757 64.88 28.414 64.7392 28.3016C64.5596 28.1395 64.3945 27.9615 64.2459 27.7698C64.1048 27.5796 63.9268 27.4208 63.7229 27.3033C63.4683 27.1715 63.1844 27.1093 62.8991 27.1227C62.5852 27.1113 62.2749 27.1932 62.0062 27.3585C61.9025 27.4146 61.8151 27.4975 61.7528 27.5987C61.6904 27.6999 61.6553 27.816 61.651 27.9354C61.6527 28.034 61.6772 28.1308 61.7227 28.218C61.7681 28.3052 61.8331 28.3802 61.9124 28.437C62.1239 28.5903 62.3614 28.7026 62.6129 28.7681C62.9089 28.8584 63.3135 28.9687 63.8315 29.0941C64.3448 29.2123 64.8418 29.3942 65.3114 29.6359C65.6595 29.8109 65.9621 30.067 66.1945 30.3833C66.4004 30.675 66.5062 31.0276 66.4954 31.3865" fill="#00002D"/>
</g>
<defs>
<clipPath id="clip0">
<rect width="85" height="34" fill="white"/>
</clipPath>
</defs>
</svg>
