<svg width="110" height="25" viewBox="0 0 110 25" fill="none" xmlns="http://www.w3.org/2000/svg">
<path d="M11.6442 17.301C11.664 17.8547 11.5633 18.4061 11.3493 18.9176C11.1352 19.4292 10.8127 19.8888 10.4037 20.2652C9.48524 21.128 8.18345 21.5594 6.51162 21.5594H0V0H6.05905C7.74863 0 9.06994 0.352883 10.023 1.05865C10.47 1.36481 10.8339 1.77606 11.0823 2.25582C11.3308 2.73557 11.4562 3.26894 11.4472 3.80849V6.79388C11.4713 7.36517 11.3219 7.93045 11.0186 8.41626C10.5572 9.07439 9.71241 9.59842 8.48427 9.98836C9.79405 10.2927 10.6939 10.7823 11.181 11.4069C11.5179 11.908 11.6814 12.5044 11.6469 13.1061V17.301H11.6442ZM6.58882 7.53758V3.88524C6.58882 3.35592 6.4637 3.03303 6.21346 2.91658C5.86532 2.7894 5.49513 2.73271 5.12464 2.74984V8.67298C5.44426 8.6959 5.7655 8.66549 6.07502 8.583C6.41312 8.41626 6.58882 8.06691 6.58882 7.53758ZM6.65537 17.6689V12.1983C6.65537 11.669 6.52227 11.3381 6.26137 11.227C5.89762 11.0955 5.51126 11.037 5.12464 11.0549V18.8122C5.46025 18.8352 5.7974 18.8039 6.12294 18.7196C6.47701 18.5555 6.65537 18.2035 6.65537 17.6689Z" fill="#00447C"/>
<path d="M19.0796 3.11508H14.4208V0H19.0796V3.11508ZM19.0796 21.5594H14.4208V4.09168H19.0796V21.5594Z" fill="#00447C"/>
<path d="M32.6113 18.2617C32.6113 19.5762 32.0789 20.5211 31.014 21.0963C30.1426 21.5674 28.8825 21.8038 27.2338 21.8056C25.5539 21.8056 24.2628 21.5409 23.347 21.0354C22.2484 20.4214 21.6992 19.4456 21.6992 18.1082V7.67523C21.6992 6.36251 22.2458 5.39737 23.339 4.77983C24.2788 4.2505 25.5699 3.98584 27.2258 3.98584C28.7432 3.98584 30.0184 4.2902 31.0539 4.89098C31.5369 5.14273 31.939 5.52433 32.2144 5.99228C32.4897 6.46024 32.6273 6.9957 32.6113 7.53761V18.2617ZM27.9525 18.222V7.52173C27.969 7.28889 27.8989 7.05816 27.7555 6.87331C27.5934 6.73346 27.3859 6.65647 27.1712 6.65647C26.9565 6.65647 26.749 6.73346 26.5869 6.87331C26.5053 6.95963 26.4426 7.06181 26.4028 7.17341C26.3629 7.28501 26.3467 7.40361 26.3553 7.52173V18.222C26.34 18.4596 26.4119 18.6947 26.5576 18.8837C26.6334 18.9648 26.7266 19.0279 26.8303 19.0682C26.934 19.1085 27.0455 19.1251 27.1566 19.1166C27.2679 19.1245 27.3797 19.1077 27.4838 19.0675C27.5878 19.0272 27.6816 18.9644 27.7582 18.8837C27.8989 18.6926 27.9677 18.4584 27.9525 18.222Z" fill="#00447C"/>
<path d="M59.0358 18.2617C59.0647 18.8453 58.9214 19.4246 58.6234 19.9282C58.3254 20.4318 57.8858 20.8379 57.3586 21.0963C56.4713 21.5674 55.2005 21.8038 53.5464 21.8056C51.8932 21.8056 50.6181 21.5409 49.7263 21.0354C48.6614 20.4161 48.129 19.4474 48.129 18.1082V7.67523C48.129 6.36251 48.6525 5.39737 49.6996 4.77983C50.619 4.2505 51.9039 3.98584 53.5544 3.98584C55.205 3.98584 56.4757 4.22227 57.3666 4.69513C58.4847 5.2721 59.0438 6.21606 59.0438 7.52702V14.1727H52.7877V18.2247C52.7726 18.4614 52.8424 18.6959 52.9847 18.8863C53.062 18.9661 53.1559 19.0281 53.2598 19.0679C53.3638 19.1077 53.4753 19.1243 53.5864 19.1166C53.6974 19.1234 53.8086 19.1064 53.9124 19.0666C54.0163 19.0269 54.1102 18.9654 54.188 18.8863C54.3284 18.695 54.3971 18.461 54.3824 18.2247V14.7179H59.0438V18.2617H59.0358ZM54.3744 11.5419V7.52438C54.3915 7.29107 54.3224 7.05957 54.18 6.87331C54.0179 6.73346 53.8104 6.65647 53.5957 6.65647C53.381 6.65647 53.1735 6.73346 53.0114 6.87331C52.9286 6.95937 52.8652 7.06191 52.8253 7.17414C52.7854 7.28637 52.7698 7.40574 52.7797 7.52438V11.5419H54.3744Z" fill="#00447C"/>
<path d="M72.7166 19.3706C72.7119 19.7121 72.6243 20.0473 72.4611 20.3478C72.2979 20.6483 72.0641 20.905 71.7795 21.0962C71.0675 21.5954 70.2087 21.8449 69.3383 21.8055C68.7642 21.8104 68.1914 21.7482 67.6319 21.6203C67.2166 21.5401 66.8195 21.3849 66.4605 21.1624V25H61.8018V4.09166H65.3211L65.7258 4.79567C65.9829 4.60283 66.2605 4.43864 66.5537 4.30604C67.1441 4.06459 67.7791 3.95004 68.4172 3.96992C69.7483 3.96992 70.8131 4.29016 71.6278 4.92535C72.3412 5.4785 72.6926 6.11898 72.6926 6.83357V19.3706H72.7166ZM68.0339 18.312V7.46082C68.0339 6.93149 67.7676 6.66683 67.2352 6.66683C67.1274 6.65949 67.0191 6.67349 66.9168 6.70801C66.8144 6.74254 66.72 6.79691 66.6389 6.86797C66.5673 6.95055 66.5128 7.04636 66.4786 7.14991C66.4443 7.25345 66.4309 7.36271 66.4392 7.4714V18.3437C66.4323 18.4488 66.4479 18.5541 66.4851 18.6527C66.5223 18.7512 66.5801 18.8408 66.6549 18.9154C66.7334 18.9854 66.8252 19.0392 66.9248 19.0737C67.0244 19.1082 67.1299 19.1228 67.2352 19.1165C67.7916 19.1165 68.0578 18.8466 68.0578 18.3146L68.0339 18.312Z" fill="#00447C"/>
<path d="M86.4985 21.5594H82.3748V20.8872C82.2663 21.0773 82.1188 21.2425 81.9417 21.372C81.7646 21.5015 81.5621 21.5924 81.3472 21.6388C80.6969 21.766 80.0345 21.8219 79.3719 21.8055C77.9716 21.8055 76.976 21.5753 76.3956 21.128C75.8153 20.6807 75.5198 19.9873 75.5198 19.0636V15.5542C75.5198 14.1621 76.5731 13.0029 78.6797 12.0765C80.7864 11.1502 81.8406 10.5045 81.8424 10.1392V7.527C81.8604 7.29194 81.7892 7.05869 81.6427 6.87329C81.5629 6.79782 81.4683 6.73959 81.3647 6.70224C81.2612 6.66489 81.151 6.64924 81.0411 6.65627C80.8325 6.65291 80.6309 6.7308 80.4794 6.87329C80.3948 6.95553 80.3297 7.05541 80.2887 7.16572C80.2478 7.27602 80.232 7.394 80.2424 7.51112V10.9332H75.7168V7.4926C75.6906 6.90866 75.8389 6.33007 76.1431 5.82985C76.4472 5.32962 76.8936 4.93017 77.4259 4.68189C78.3496 4.21608 79.6328 3.98053 81.2913 3.98053C82.9498 3.98053 84.1904 4.24519 85.0183 4.7507C85.9998 5.34707 86.4914 6.32191 86.4932 7.67522V21.57L86.4985 21.5594ZM81.8424 18.3199V13.8048C81.3634 13.8763 80.9078 14.0575 80.5113 14.3341C80.4006 14.4348 80.3126 14.5575 80.2529 14.6944C80.1933 14.8312 80.1634 14.979 80.1652 15.1281V18.3041C80.1562 18.4146 80.1718 18.5257 80.2109 18.6296C80.25 18.7334 80.3117 18.8274 80.3915 18.9048C80.5729 19.0505 80.8031 19.1224 81.0358 19.106C81.2439 19.1127 81.4471 19.0419 81.6055 18.9075C81.6851 18.8322 81.7475 18.7408 81.7884 18.6394C81.8293 18.538 81.8477 18.429 81.8424 18.3199Z" fill="#00447C"/>
<path d="M93.9259 3.11508H89.2725V0H93.9259V3.11508ZM93.9259 21.5594H89.2725V4.09168H93.9259V21.5594Z" fill="#00447C"/>
<path d="M107.529 11.3011H102.873V7.51644C102.888 7.40878 102.877 7.29926 102.842 7.19637C102.807 7.09348 102.749 7.00001 102.671 6.92321C102.594 6.8464 102.5 6.78834 102.397 6.75352C102.293 6.71871 102.183 6.70807 102.075 6.72246C101.859 6.7078 101.645 6.77388 101.476 6.90772C101.404 6.98668 101.349 7.0797 101.315 7.18086C101.281 7.28202 101.269 7.3891 101.279 7.49527V21.5594H96.62V4.09171H101.276V4.67132C101.625 4.43371 102.016 4.26316 102.429 4.16846C102.992 4.02874 103.571 3.96202 104.151 3.96997C105.018 3.9344 105.871 4.18779 106.576 4.68985C106.868 4.88443 107.106 5.14668 107.273 5.45383C107.439 5.76099 107.527 6.10379 107.529 6.4525V11.3011Z" fill="#00447C"/>
<path d="M46.1989 11.3011H41.5428V7.51641C41.5573 7.40875 41.5466 7.29922 41.5116 7.19633C41.4765 7.09345 41.4181 6.99997 41.3409 6.92317C41.2636 6.84637 41.1696 6.7883 41.0661 6.75349C40.9626 6.71867 40.8525 6.70804 40.7442 6.72242C40.5275 6.70812 40.3131 6.77412 40.1425 6.90768C40.0715 6.98721 40.0175 7.08038 39.9841 7.18144C39.9507 7.28249 39.9385 7.38929 39.9482 7.49523V21.5594H35.2894V4.09168H39.9455V4.67129C40.2946 4.43318 40.6856 4.26259 41.0982 4.16843C41.6605 4.02884 42.2385 3.96212 42.818 3.96993C43.689 3.93117 44.5479 4.18472 45.2565 4.68981C45.5471 4.88489 45.7857 5.14724 45.9517 5.45429C46.1177 5.76133 46.2062 6.10388 46.2096 6.45246V11.3011" fill="#00447C"/>
<path fill-rule="evenodd" clip-rule="evenodd" d="M109.193 4.81946C109.124 4.79294 109.049 4.78122 108.975 4.78505H108.821V5.09471H108.983C109.042 5.09683 109.101 5.0915 109.159 5.07883C109.189 5.07103 109.216 5.05315 109.235 5.02813C109.254 5.00312 109.264 4.97246 109.263 4.94121L109.193 4.81946ZM109.712 5.76695C109.522 5.93567 109.276 6.02889 109.02 6.02889C108.765 6.02889 108.519 5.93567 108.328 5.76695C108.238 5.68672 108.166 5.58832 108.118 5.47833C108.069 5.36833 108.045 5.24927 108.046 5.12912C108.045 5.00973 108.071 4.89163 108.12 4.78291C108.17 4.67419 108.243 4.57741 108.333 4.49922C108.523 4.33034 108.768 4.23694 109.023 4.23694C109.277 4.23694 109.523 4.33034 109.712 4.49922C109.803 4.57893 109.875 4.67675 109.924 4.78623C109.974 4.89572 110 5.01438 110 5.13441C110 5.25444 109.974 5.3731 109.924 5.48259C109.875 5.59207 109.803 5.68989 109.712 5.7696V5.76695ZM108.496 4.65008C108.428 4.71028 108.374 4.78415 108.337 4.86676C108.301 4.94936 108.282 5.0388 108.283 5.12912C108.282 5.22061 108.3 5.31126 108.337 5.39517C108.374 5.47908 108.428 5.55436 108.496 5.61609C108.64 5.74935 108.831 5.82068 109.028 5.81459C109.126 5.81848 109.223 5.80292 109.315 5.76883C109.406 5.73474 109.49 5.68281 109.561 5.61609C109.63 5.55525 109.685 5.48021 109.722 5.39613C109.76 5.31206 109.778 5.22096 109.776 5.12912C109.778 5.03844 109.759 4.94854 109.722 4.86577C109.685 4.78299 109.63 4.70936 109.561 4.65008C109.49 4.58336 109.406 4.53143 109.315 4.49734C109.223 4.46325 109.126 4.44769 109.028 4.45158C108.832 4.44578 108.64 4.51706 108.496 4.65008ZM108.999 4.65008C109.094 4.64448 109.19 4.65522 109.281 4.68184C109.331 4.69779 109.374 4.73001 109.403 4.77326C109.432 4.8165 109.445 4.86823 109.441 4.92003C109.443 4.95793 109.435 4.99569 109.417 5.02926C109.399 5.06283 109.372 5.09095 109.34 5.11059L109.191 5.15294C109.26 5.15942 109.324 5.19268 109.369 5.24557L109.425 5.39378V5.46259L109.441 5.58169H109.276L109.263 5.4573C109.269 5.41556 109.262 5.373 109.245 5.33457C109.228 5.29615 109.199 5.26344 109.164 5.24027C109.102 5.21552 109.034 5.20555 108.967 5.21116H108.818V5.58169H108.642V4.65802L108.999 4.65008Z" fill="#00447C"/>
</svg>
