<svg width="97" height="28" viewBox="0 0 97 28" fill="none" xmlns="http://www.w3.org/2000/svg">
<path d="M0 6.25653H10.5297C12.2085 6.303 14.2567 6.34947 15.358 7.94928C15.8056 8.64149 16.0304 9.45157 16.0027 10.2727C16.0242 11.0483 15.7987 11.8111 15.358 12.4533C14.8481 13.1059 14.1257 13.5643 13.3132 13.7511C14.3205 14.0299 16.8287 14.6572 16.8287 17.9298C16.8536 18.9007 16.5985 19.8584 16.0934 20.6913C14.8309 22.6164 12.7357 22.6164 11.1509 22.6397H0V6.25653ZM4.02921 12.7089H9.84136C10.2841 12.7311 10.7274 12.6761 11.1509 12.5462C12.1179 12.1513 12.1179 11.0593 12.1179 10.8867C12.1179 9.14747 10.805 9.12424 10.1637 9.12424H4.02921V12.7089ZM4.02921 19.762H10.1167C11.0367 19.762 12.7592 19.7852 12.7592 17.5349C12.7592 15.5633 11.2214 15.5633 10.6237 15.5633H4.02921V19.762Z" fill="#231F20"/>
<path d="M18.0677 6.06732H22.3756V19.4334H30.9746V22.4504H18.0677V6.06732Z" fill="#231F20"/>
<path d="M38.2406 6.10052H43.1026L50.4894 22.4836H45.6913L44.3483 19.3969H36.8069L35.4638 22.4836H30.6355L38.2406 6.10052ZM40.6279 9.4827L38.0761 15.9317H43.0052L40.6279 9.4827Z" fill="#231F20"/>
<path d="M50.7009 5.97443H55.3211C55.3211 5.97443 62.2681 15.1186 63.1243 16.5591L62.99 5.97443H67.58V22.3542H62.8792C62.8792 22.3542 56.3821 14.1593 55.1566 11.9754L55.2103 22.3542H50.7009V5.97443Z" fill="#231F20"/>
<path d="M75.4169 13.688L65.0551 0H74.4532L80.225 8.93172L86.0137 0H95.4286L85.0332 13.4689L96.352 28H86.7356L80.1512 18.514L73.3452 28H63.9504L75.4169 13.688Z" fill="#231F20"/>
<path d="M93.2058 4.68992C93.2542 4.22588 93.475 3.79608 93.8254 3.4836C94.1758 3.17113 94.631 2.99817 95.1029 2.99817C95.5748 2.99817 96.03 3.17113 96.3804 3.4836C96.7308 3.79608 96.9516 4.22588 97 4.68992C96.9516 5.15395 96.7308 5.58375 96.3804 5.89623C96.03 6.20871 95.5748 6.38166 95.1029 6.38166C94.631 6.38166 94.1758 6.20871 93.8254 5.89623C93.475 5.58375 93.2542 5.15395 93.2058 4.68992ZM96.399 4.68992C96.411 4.43432 96.3454 4.181 96.2105 3.9626C96.0757 3.7442 95.8777 3.57073 95.6422 3.46454C95.4067 3.35835 95.1444 3.3243 94.8892 3.36677C94.6339 3.40925 94.3973 3.52632 94.21 3.70288C94.0226 3.87945 93.8931 4.10742 93.838 4.35743C93.7829 4.60745 93.8047 4.86805 93.9008 5.10565C93.9969 5.34325 94.1627 5.54698 94.377 5.69058C94.5912 5.83418 94.844 5.91107 95.1029 5.91135C95.2696 5.91711 95.4358 5.88989 95.5917 5.8313C95.7476 5.77271 95.8901 5.68391 96.0109 5.57014C96.1316 5.45636 96.2281 5.31989 96.2948 5.16874C96.3614 5.01758 96.3968 4.85479 96.399 4.68992ZM94.3508 3.75393H95.1936C95.7073 3.75393 95.986 3.88337 95.986 4.29826C95.986 4.64677 95.7375 4.79281 95.4085 4.8094L95.902 5.60931H95.3984L94.9451 4.83596H94.8578V5.60931H94.3508V3.75393ZM94.8578 4.47749H95.16C95.3514 4.47749 95.4958 4.42439 95.4958 4.27503C95.4958 4.12567 95.2909 4.11571 95.1331 4.11571H94.8712L94.8578 4.47749Z" fill="#231F20"/>
</svg>
