<svg width="15" height="15" viewBox="0 0 15 15" fill="none" xmlns="http://www.w3.org/2000/svg">
<path d="M11.9937 7.42856C11.9937 7.11424 11.7421 6.8596 11.432 6.8596H7.99498V3.42763V3.42753C7.99498 3.11214 7.73908 2.85634 7.42391 2.85634C7.10852 2.85634 6.85262 3.11214 6.85262 3.42753V7.42634C6.85262 7.74183 7.10852 7.99763 7.42391 7.99763H11.4324C11.7421 7.99763 11.9937 7.74289 11.9937 7.42856ZM13.7089 7.42496C13.7089 10.8961 10.8955 13.71 7.42507 13.71C3.95447 13.71 1.1412 10.8961 1.1412 7.42496C1.1412 3.95384 3.95447 1.13993 7.42507 1.13993C10.8955 1.13993 13.7089 3.95384 13.7089 7.42496ZM14.8499 7.42496C14.8499 3.32423 11.5257 0 7.42507 0C3.32423 0 0 3.32423 0 7.42496C0 11.5257 3.32423 14.8499 7.42507 14.8499C11.5257 14.8499 14.8499 11.5257 14.8499 7.42496Z" fill="#6D90A6"/>
</svg>
