<svg width="16" height="16" viewBox="0 0 16 16" fill="none" xmlns="http://www.w3.org/2000/svg">
<path d="M15.3281 13.1211L10.2031 7.97655L15.3398 2.89844C15.5508 2.6875 15.5508 2.34375 15.3398 2.13281L13.8789 0.664062C13.7773 0.5625 13.6406 0.507812 13.4961 0.507812C13.3516 0.507812 13.2148 0.566406 13.1133 0.664062L8 5.72656L2.87891 0.667969C2.77734 0.566406 2.64062 0.511719 2.49609 0.511719C2.35156 0.511719 2.21484 0.570313 2.11328 0.667969L0.65625 2.13672C0.445313 2.34765 0.445313 2.6914 0.65625 2.90234L5.79297 7.98046L0.671875 13.1211C0.570313 13.2226 0.511719 13.3594 0.511719 13.5039C0.511719 13.6484 0.566406 13.7851 0.671875 13.8867L2.13281 15.3555C2.23828 15.4609 2.375 15.5156 2.51562 15.5156C2.65234 15.5156 2.79297 15.4648 2.89844 15.3555L8 10.2305L13.1055 15.3515C13.2109 15.457 13.3477 15.5117 13.4883 15.5117C13.625 15.5117 13.7656 15.4609 13.8711 15.3515L15.332 13.8828C15.4336 13.7812 15.4922 13.6445 15.4922 13.5C15.4883 13.3594 15.4297 13.2226 15.3281 13.1211Z" fill="#E52A5A"/>
</svg>
