<svg width="82" height="70" viewBox="0 0 82 70" fill="none" xmlns="http://www.w3.org/2000/svg">
<path d="M20.3829 63.8795L2.20997 36.5524C-0.119198 32.7066 1.09955 27.7232 4.94538 25.367L43.2683 2.07533C47.1141 -0.25384 52.0975 0.96491 54.4537 4.78366L64.4204 21.1962L67.6162 26.9107" fill="#F43735"/>
<path d="M72.8431 69.1071H27.9688C23.4816 69.1071 19.8438 65.4693 19.8438 60.9821V35.0271C19.8438 30.5399 23.4816 26.9021 27.9688 26.9021H72.8431C77.3306 26.9021 80.9681 30.5399 80.9681 35.0271V60.9821C80.9681 65.4693 77.3306 69.1071 72.8431 69.1071Z" fill="#F9F9F9"/>
<path d="M80.9741 36.1921H19.8438V44.6776H80.9741V36.1921Z" fill="#383838"/>
<path d="M75.3623 55.7146H68.2529" stroke="#303030" stroke-width="0.5" stroke-miterlimit="10" stroke-linecap="round" stroke-linejoin="round"/>
<path d="M75.3623 58.7615H68.2529" stroke="#303030" stroke-width="0.5" stroke-miterlimit="10" stroke-linecap="round" stroke-linejoin="round"/>
<path d="M75.3623 61.9214H68.2529" stroke="#303030" stroke-width="0.5" stroke-miterlimit="10" stroke-linecap="round" stroke-linejoin="round"/>
<path d="M45.5767 48.9153C42.6179 48.9153 40.0818 50.7001 38.9684 53.2486C37.855 50.7001 35.3189 48.9153 32.3601 48.9153C28.3748 48.9153 25.1445 52.1458 25.1445 56.1306C25.1445 60.1156 28.3748 63.3461 32.3601 63.3461C35.3189 63.3461 37.855 61.561 38.9684 59.0125C40.0818 61.561 42.6179 63.3461 45.5767 63.3461C49.5618 63.3461 52.792 60.1156 52.792 56.1306C52.792 52.1458 49.5618 48.9153 45.5767 48.9153Z" fill="#FFC601"/>
<path d="M72.8431 69.1071H27.9688C23.4816 69.1071 19.8438 65.4693 19.8438 60.9821V35.0271C19.8438 30.5399 23.4816 26.9021 27.9688 26.9021H72.8431C77.3306 26.9021 80.9681 30.5399 80.9681 35.0271V60.9821C80.9681 65.4693 77.3306 69.1071 72.8431 69.1071Z" stroke="#303030" stroke-width="0.5" stroke-miterlimit="10" stroke-linecap="round" stroke-linejoin="round"/>
<path d="M80.9741 36.1921H19.8438" stroke="#303030" stroke-width="0.5" stroke-miterlimit="10" stroke-linecap="round" stroke-linejoin="round"/>
<path d="M80.9741 44.6782H19.8438" stroke="#303030" stroke-width="0.5" stroke-miterlimit="10" stroke-linecap="round" stroke-linejoin="round"/>
<path d="M22.415 66.9131L22.3877 66.8857" stroke="#303030" stroke-width="0.5" stroke-miterlimit="10" stroke-linecap="round" stroke-linejoin="round"/>
<path d="M20.3829 63.8795L2.20997 36.5524C-0.119198 32.7066 1.09955 27.7232 4.94538 25.367L43.2683 2.07533C47.1141 -0.25384 52.0975 0.96491 54.4537 4.78366L64.4204 21.1962L67.6162 26.9107" stroke="#303030" stroke-width="0.5" stroke-miterlimit="10" stroke-linecap="round" stroke-linejoin="round"/>
<path d="M7.18115 37.968C7.18115 37.968 1.89828 32.205 6.78089 28.4396L22.4258 18.8865" stroke="#303030" stroke-width="0.5" stroke-miterlimit="10" stroke-linecap="round" stroke-linejoin="round"/>
<path d="M25.9355 16.8782L27.5679 15.7158" stroke="#303030" stroke-width="0.5" stroke-miterlimit="10" stroke-linecap="round" stroke-linejoin="round"/>
<path d="M63.3197 26.9016L58.9062 19.7798" stroke="#303030" stroke-width="0.5" stroke-miterlimit="10" stroke-linecap="round" stroke-linejoin="round"/>
<path d="M32.3205 63.3063C36.2837 63.3063 39.4965 60.0935 39.4965 56.1303C39.4965 52.1671 36.2837 48.9543 32.3205 48.9543C28.3573 48.9543 25.1445 52.1671 25.1445 56.1303C25.1445 60.0935 28.3573 63.3063 32.3205 63.3063Z" fill="#F43735"/>
</svg>
