<svg width="80" height="29" viewBox="0 0 80 29" fill="none" xmlns="http://www.w3.org/2000/svg">
<g clip-path="url(#clip0)">
<path d="M15.9481 29C6.05919 29 0 22.5714 0 14.5154C0 6.45933 6.05919 0 15.9481 0H80.0113V29H15.9481Z" fill="#00754A"/>
<path d="M76.6811 8.77063C76.4137 8.77242 76.1503 8.70609 75.9163 8.57802C75.6827 8.45564 75.4874 8.27219 75.3519 8.04765C75.2101 7.82653 75.1357 7.56975 75.1374 7.30793C75.1364 7.05 75.2077 6.79685 75.3434 6.57658C75.4809 6.35214 75.6755 6.16733 75.9078 6.04063C76.1471 5.91429 76.4141 5.84821 76.6854 5.84821C76.9566 5.84821 77.2236 5.91429 77.4629 6.04063C77.6958 6.16658 77.8906 6.35156 78.0273 6.57658C78.1619 6.79731 78.2331 7.05016 78.2333 7.30793C78.2333 7.56951 78.159 7.82583 78.0188 8.04765C77.8825 8.27157 77.6875 8.45483 77.4544 8.57802C77.2178 8.70737 76.9514 8.77374 76.6811 8.77063ZM76.6811 8.44403C76.8847 8.44162 77.0848 8.3919 77.2653 8.29888C77.4526 8.20559 77.61 8.06253 77.7197 7.88575C77.8293 7.71459 77.8876 7.51614 77.8876 7.31351C77.8876 7.11089 77.8293 6.91243 77.7197 6.74127C77.6112 6.56411 77.4561 6.41939 77.271 6.32256C77.0872 6.22375 76.8818 6.17103 76.6727 6.16903C76.4653 6.17103 76.2617 6.22378 76.08 6.32256C75.8935 6.41852 75.7373 6.56337 75.6285 6.74127C75.5247 6.90953 75.4691 7.10249 75.4676 7.29955C75.4695 7.50386 75.5281 7.70372 75.6369 7.87738C75.7466 8.05416 75.904 8.19722 76.0913 8.29051C76.2725 8.388 76.4749 8.44068 76.6811 8.44403ZM76.0574 8.20118V6.45655H76.5965C76.7439 6.44964 76.8915 6.46565 77.0339 6.504C77.1143 6.53069 77.1843 6.58141 77.2343 6.64916C77.2886 6.72469 77.3154 6.81619 77.3105 6.90876C77.3095 7.00912 77.2769 7.10668 77.2173 7.1879C77.1437 7.28461 77.0467 7.36142 76.9351 7.41121L77.3726 8.19281H76.9803L76.5852 7.481H76.4074V8.19281L76.0574 8.20118ZM76.4017 7.25768H76.5541C76.6559 7.26544 76.7568 7.23449 76.8363 7.17115C76.867 7.14381 76.8913 7.11014 76.9074 7.07252C76.9235 7.0349 76.931 6.99424 76.9295 6.95342C76.931 6.91992 76.9249 6.8865 76.9117 6.85561C76.8985 6.82471 76.8786 6.79709 76.8533 6.77477C76.7696 6.72166 76.6698 6.69896 76.5711 6.71057H76.4045L76.4017 7.25768ZM27.9394 12.6088C28.3449 12.5791 28.7501 12.6709 29.102 12.8722C29.454 13.0735 29.7365 13.3751 29.9127 13.7375C30.0889 14.1 30.1506 14.5065 30.0898 14.9041C30.0289 15.3018 29.8484 15.6721 29.5718 15.9668C29.2951 16.2614 28.9351 16.4668 28.5386 16.5562C28.1422 16.6456 27.7277 16.6147 27.3493 16.4677C26.9708 16.3207 26.646 16.0643 26.417 15.732C26.188 15.3997 26.0655 15.0068 26.0655 14.6047C26.0495 14.095 26.2372 13.5997 26.588 13.226C26.9388 12.8524 27.4244 12.6306 27.9394 12.6088ZM49.3456 12.6088C49.7511 12.5791 50.1562 12.6709 50.5082 12.8722C50.8601 13.0735 51.1426 13.3751 51.3188 13.7375C51.495 14.1 51.5567 14.5065 51.4959 14.9041C51.4351 15.3018 51.2546 15.6721 50.9779 15.9668C50.7012 16.2614 50.3412 16.4668 49.9448 16.5562C49.5483 16.6456 49.1339 16.6147 48.7554 16.4677C48.377 16.3207 48.0521 16.0643 47.8231 15.732C47.5941 15.3997 47.4717 15.0068 47.4717 14.6047C47.4556 14.096 47.6425 13.6014 47.9921 13.2279C48.3417 12.8544 48.8259 12.632 49.34 12.6088H49.3456ZM69.6652 6.16903H52.6419V22.6384H56.9683V9.9179H61.5599V22.6467H65.8835V9.9179H68.4404C70.2776 9.9179 70.4752 11.4364 70.4752 12.0896V22.6467H74.7874V11.2438C74.7942 10.5769 74.6667 9.91541 74.4123 9.29779C74.1579 8.68016 73.7817 8.11881 73.3058 7.64645C72.8298 7.1741 72.2635 6.80019 71.6399 6.54654C71.0163 6.29288 70.3479 6.16455 69.6737 6.16903H69.6652ZM6.49097 14.4093C6.49097 9.1056 9.31314 6.16624 14.4523 6.16624H24.6375V9.55502H15.6517C12.9142 9.55502 11.5229 11.188 11.5229 14.4093C11.5229 17.6306 12.9142 19.2608 15.6517 19.2608H20.0176V16.0339H17.2152V12.7791H24.6375V22.6467H14.4438C9.31314 22.6467 6.49097 19.7186 6.49097 14.4093ZM41.833 6.16624V17.0528C41.833 18.1358 40.5404 19.3054 38.6101 19.3054C36.6797 19.3054 35.4662 18.1721 35.4662 17.0528V6.16624H31.2329V17.2761C31.2329 20.7821 34.3373 23.0459 38.5988 23.0459C42.8066 23.0459 46.0408 20.7263 46.0408 17.2761V6.16624H41.833Z" fill="white"/>
</g>
<defs>
<clipPath id="clip0">
<rect width="80" height="29" fill="white"/>
</clipPath>
</defs>
</svg>
