<svg width="96" height="35" viewBox="0 0 96 35" fill="none" xmlns="http://www.w3.org/2000/svg">
<path d="M19.1377 35C7.27103 35 0 27.2413 0 17.5185C0 7.79574 7.27103 0 19.1377 0H96.0135V35H19.1377Z" fill="#00754A"/>
<path d="M92.0173 10.5852C91.6964 10.5873 91.3804 10.5073 91.0996 10.3527C90.8192 10.205 90.5849 9.98361 90.4223 9.71261C90.2522 9.44574 90.1628 9.13583 90.1649 8.81984C90.1637 8.50855 90.2493 8.20302 90.4121 7.93718C90.5771 7.6663 90.8106 7.44326 91.0894 7.29034C91.3765 7.13787 91.697 7.05811 92.0224 7.05811C92.3479 7.05811 92.6683 7.13787 92.9554 7.29034C93.2349 7.44235 93.4687 7.6656 93.6328 7.93718C93.7943 8.20358 93.8798 8.50874 93.88 8.81984C93.88 9.13554 93.7908 9.44489 93.6226 9.71261C93.459 9.98285 93.225 10.204 92.9453 10.3527C92.6614 10.5088 92.3417 10.5889 92.0173 10.5852ZM92.0173 10.191C92.2616 10.1881 92.5017 10.1281 92.7184 10.0158C92.9432 9.90323 93.132 9.73057 93.2636 9.51721C93.3952 9.31064 93.4651 9.07113 93.4651 8.82658C93.4651 8.58203 93.3952 8.34251 93.2636 8.13594C93.1334 7.92213 92.9473 7.74747 92.7251 7.6306C92.5047 7.51135 92.2581 7.44773 92.0072 7.44531C91.7584 7.44772 91.5141 7.51138 91.296 7.6306C91.0722 7.74641 90.8848 7.92124 90.7542 8.13594C90.6297 8.33902 90.563 8.5719 90.5611 8.80973C90.5634 9.05631 90.6337 9.29752 90.7643 9.50711C90.896 9.72046 91.0848 9.89312 91.3095 10.0057C91.527 10.1234 91.7698 10.1869 92.0173 10.191ZM91.2689 9.8979V7.79231H91.9158C92.0927 7.78398 92.2698 7.8033 92.4407 7.84958C92.5371 7.88179 92.6212 7.943 92.6811 8.02477C92.7463 8.11593 92.7785 8.22637 92.7726 8.33808C92.7714 8.4592 92.7323 8.57696 92.6608 8.67498C92.5725 8.7917 92.456 8.88439 92.3221 8.94449L92.8471 9.8878H92.3763L91.9022 9.02872H91.6889V9.8878L91.2689 9.8979ZM91.6821 8.7592H91.865C91.9871 8.76857 92.1082 8.73121 92.2036 8.65476C92.2404 8.62176 92.2695 8.58113 92.2888 8.53572C92.3082 8.49032 92.3172 8.44125 92.3154 8.39198C92.3172 8.35155 92.3099 8.31122 92.2941 8.27393C92.2783 8.23664 92.2543 8.20332 92.2239 8.17637C92.1235 8.11227 92.0038 8.08488 91.8853 8.09889H91.6855L91.6821 8.7592ZM33.5274 15.2175C34.0139 15.1816 34.5001 15.2924 34.9225 15.5354C35.3448 15.7783 35.6838 16.1423 35.8952 16.5797C36.1066 17.0171 36.1807 17.5078 36.1077 17.9877C36.0348 18.4676 35.8181 18.9145 35.4861 19.2701C35.1541 19.6258 34.7221 19.8737 34.2464 19.9816C33.7707 20.0894 33.2733 20.0522 32.8192 19.8747C32.365 19.6973 31.9752 19.3879 31.7004 18.9868C31.4256 18.5858 31.2786 18.1116 31.2787 17.6263C31.2594 17.0112 31.4846 16.4133 31.9056 15.9624C32.3266 15.5114 32.9093 15.2438 33.5274 15.2175ZM59.2147 15.2175C59.7013 15.1816 60.1875 15.2924 60.6098 15.5354C61.0322 15.7783 61.3712 16.1423 61.5826 16.5797C61.794 17.0171 61.8681 17.5078 61.7951 17.9877C61.7221 18.4676 61.5055 18.9145 61.1735 19.2701C60.8415 19.6258 60.4095 19.8737 59.9337 19.9816C59.458 20.0894 58.9607 20.0522 58.5065 19.8747C58.0524 19.6973 57.6625 19.3879 57.3877 18.9868C57.113 18.5858 56.966 18.1116 56.966 17.6263C56.9467 17.0123 57.171 16.4154 57.5906 15.9646C58.0101 15.5139 58.5911 15.2455 59.208 15.2175H59.2147ZM83.5983 7.44531H63.1703V27.3221H68.3619V11.9698H73.8719V27.3322H79.0602V11.9698H82.1285C84.3332 11.9698 84.5702 13.8025 84.5702 14.5908V27.3322H89.7449V13.5701C89.7531 12.7652 89.6 11.9668 89.2947 11.2214C88.9895 10.476 88.5381 9.79849 87.9669 9.2284C87.3957 8.65832 86.7162 8.20705 85.9679 7.90092C85.2196 7.59478 84.4175 7.4399 83.6084 7.44531H83.5983ZM7.78918 17.3904C7.78918 10.9894 11.1758 7.44194 17.3428 7.44194H29.565V11.5318H18.7821C15.4971 11.5318 13.8275 13.5027 13.8275 17.3904C13.8275 21.2782 15.4971 23.2457 18.7821 23.2457H24.0212V19.3512H20.6583V15.423H29.565V27.3322H17.3326C11.1758 27.3322 7.78918 23.7982 7.78918 17.3904ZM50.1996 7.44194V20.5808C50.1996 21.888 48.6485 23.2996 46.3321 23.2996C44.0157 23.2996 42.5594 21.9318 42.5594 20.5808V7.44194H37.4795V20.8504C37.4795 25.0818 41.2048 27.814 46.3186 27.814C51.368 27.814 55.249 25.0144 55.249 20.8504V7.44194H50.1996Z" fill="white"/>
</svg>
