<svg width="130" height="130" viewBox="0 0 130 130" fill="none" xmlns="http://www.w3.org/2000/svg">
<path d="M44.3829 93.8795L26.21 66.5524C23.8808 62.7066 25.0996 57.7232 28.9454 55.367L67.2683 32.0753C71.1141 29.7462 76.0975 30.9649 78.4537 34.7837L88.4204 51.1962L91.6162 56.9107" fill="#F43735"/>
<path d="M96.8431 99.1071H51.9688C47.4816 99.1071 43.8438 95.4693 43.8438 90.9821V65.0271C43.8438 60.5399 47.4816 56.9021 51.9688 56.9021H96.8431C101.331 56.9021 104.968 60.5399 104.968 65.0271V90.9821C104.968 95.4693 101.331 99.1071 96.8431 99.1071Z" fill="#F9F9F9"/>
<path d="M104.974 66.1921H43.8438V74.6776H104.974V66.1921Z" fill="#383838"/>
<path d="M99.3623 85.7146H92.2529" stroke="#303030" stroke-width="0.5" stroke-miterlimit="10" stroke-linecap="round" stroke-linejoin="round"/>
<path d="M99.3623 88.7615H92.2529" stroke="#303030" stroke-width="0.5" stroke-miterlimit="10" stroke-linecap="round" stroke-linejoin="round"/>
<path d="M99.3623 91.9214H92.2529" stroke="#303030" stroke-width="0.5" stroke-miterlimit="10" stroke-linecap="round" stroke-linejoin="round"/>
<path d="M69.5767 78.9153C66.6179 78.9153 64.0818 80.7001 62.9684 83.2486C61.855 80.7001 59.3189 78.9153 56.3601 78.9153C52.3748 78.9153 49.1445 82.1458 49.1445 86.1306C49.1445 90.1156 52.3748 93.3461 56.3601 93.3461C59.3189 93.3461 61.855 91.561 62.9684 89.0125C64.0818 91.561 66.6179 93.3461 69.5767 93.3461C73.5618 93.3461 76.792 90.1156 76.792 86.1306C76.792 82.1458 73.5618 78.9153 69.5767 78.9153Z" fill="#FFC601"/>
<path d="M96.8431 99.1071H51.9688C47.4816 99.1071 43.8438 95.4693 43.8438 90.9821V65.0271C43.8438 60.5399 47.4816 56.9021 51.9688 56.9021H96.8431C101.331 56.9021 104.968 60.5399 104.968 65.0271V90.9821C104.968 95.4693 101.331 99.1071 96.8431 99.1071Z" stroke="#303030" stroke-width="0.5" stroke-miterlimit="10" stroke-linecap="round" stroke-linejoin="round"/>
<path d="M104.974 66.1921H43.8438" stroke="#303030" stroke-width="0.5" stroke-miterlimit="10" stroke-linecap="round" stroke-linejoin="round"/>
<path d="M104.974 74.6782H43.8438" stroke="#303030" stroke-width="0.5" stroke-miterlimit="10" stroke-linecap="round" stroke-linejoin="round"/>
<path d="M46.415 96.9131L46.3877 96.8857" stroke="#303030" stroke-width="0.5" stroke-miterlimit="10" stroke-linecap="round" stroke-linejoin="round"/>
<path d="M44.3829 93.8795L26.21 66.5524C23.8808 62.7066 25.0996 57.7232 28.9454 55.367L67.2683 32.0753C71.1141 29.7462 76.0975 30.9649 78.4537 34.7837L88.4204 51.1962L91.6162 56.9107" stroke="#303030" stroke-width="0.5" stroke-miterlimit="10" stroke-linecap="round" stroke-linejoin="round"/>
<path d="M31.1812 67.968C31.1812 67.968 25.8983 62.205 30.7809 58.4396L46.4258 48.8865" stroke="#303030" stroke-width="0.5" stroke-miterlimit="10" stroke-linecap="round" stroke-linejoin="round"/>
<path d="M49.9355 46.8782L51.5679 45.7158" stroke="#303030" stroke-width="0.5" stroke-miterlimit="10" stroke-linecap="round" stroke-linejoin="round"/>
<path d="M87.3197 56.9016L82.9062 49.7798" stroke="#303030" stroke-width="0.5" stroke-miterlimit="10" stroke-linecap="round" stroke-linejoin="round"/>
<path d="M56.3205 93.3063C60.2837 93.3063 63.4965 90.0935 63.4965 86.1303C63.4965 82.1671 60.2837 78.9543 56.3205 78.9543C52.3573 78.9543 49.1445 82.1671 49.1445 86.1303C49.1445 90.0935 52.3573 93.3063 56.3205 93.3063Z" fill="#F43735"/>
</svg>
