<svg width="17" height="17" viewBox="0 0 17 17" fill="none" xmlns="http://www.w3.org/2000/svg">
<path d="M12.2188 14.875C11.3385 14.875 10.625 14.1615 10.625 13.2812C10.625 12.401 11.3385 11.6875 12.2188 11.6875C13.099 11.6875 13.8125 12.401 13.8125 13.2812C13.8125 14.1615 13.099 14.875 12.2188 14.875Z" fill="#6D90A6"/>
<path d="M4.78125 14.875C3.90105 14.875 3.1875 14.1615 3.1875 13.2812C3.1875 12.401 3.90105 11.6875 4.78125 11.6875C5.66145 11.6875 6.375 12.401 6.375 13.2812C6.375 14.1615 5.66145 14.875 4.78125 14.875Z" fill="#6D90A6"/>
<path d="M1.11829 2.4193C1.24844 2.15686 1.56772 2.04955 1.83016 2.18077L3.95463 3.24327C4.13685 3.33305 4.24947 3.51686 4.24947 3.71927V4.25052H14.6694L14.9026 3.55086C14.9956 3.27196 15.2963 3.12214 15.5752 3.21511C15.853 3.30808 16.0028 3.60877 15.9099 3.88714H15.9109L13.7854 10.2621C13.7132 10.48 13.5107 10.625 13.2812 10.625H3.71769C3.57638 10.625 3.44303 10.5703 3.34263 10.4699C3.24222 10.3695 3.18697 10.2361 3.18697 10.0948V4.04758L1.35575 3.13064C1.09438 3.00049 0.987066 2.68068 1.11829 2.4193ZM12.8993 9.56249L14.3156 5.31249H4.25V9.56249H12.8993Z" fill="#6D90A6"/>
</svg>
