<svg width="22" height="22" viewBox="0 0 22 22" fill="none" xmlns="http://www.w3.org/2000/svg">
<path d="M15.8125 19.25C14.6734 19.25 13.75 18.3266 13.75 17.1875C13.75 16.0484 14.6734 15.125 15.8125 15.125C16.9516 15.125 17.875 16.0484 17.875 17.1875C17.875 18.3266 16.9516 19.25 15.8125 19.25Z" fill="#6D90A6"/>
<path d="M6.1875 19.25C5.04841 19.25 4.125 18.3266 4.125 17.1875C4.125 16.0484 5.04841 15.125 6.1875 15.125C7.32659 15.125 8.25 16.0484 8.25 17.1875C8.25 18.3266 7.32659 19.25 6.1875 19.25Z" fill="#6D90A6"/>
<path d="M1.4472 3.13087C1.61564 2.79124 2.02883 2.65237 2.36846 2.82218L5.11777 4.19718C5.35358 4.31337 5.49933 4.55124 5.49933 4.81318V5.50068H18.984L19.2858 4.59525C19.4061 4.23431 19.7952 4.04043 20.1561 4.16075C20.5157 4.28106 20.7096 4.67018 20.5893 5.03043H20.5906L17.84 13.2804C17.7465 13.5623 17.4845 13.75 17.1875 13.75H4.81114C4.62827 13.75 4.45571 13.6792 4.32577 13.5492C4.19583 13.4193 4.12433 13.2467 4.12433 13.0639V5.23806L1.75452 4.05143C1.41627 3.88299 1.27739 3.46912 1.4472 3.13087ZM16.6932 12.375L18.5261 6.87499H5.50002V12.375H16.6932Z" fill="#6D90A6"/>
</svg>
