<svg width="173" height="173" viewBox="0 0 173 173" fill="none" xmlns="http://www.w3.org/2000/svg">
<path d="M132.995 76.228H123.804C123.263 76.228 122.723 76.7687 122.452 77.3093L118.668 101.097C118.668 101.637 118.938 101.908 119.479 101.908H124.345C124.885 101.908 125.155 101.637 125.155 101.097L126.237 94.339C126.237 93.7983 126.777 93.2577 127.588 93.2577H130.562C136.779 93.2577 140.293 90.2843 141.104 84.3374C141.645 81.9046 141.104 79.7421 140.023 78.3905C138.401 77.039 135.968 76.228 132.995 76.228ZM134.076 85.1483C133.535 88.3921 131.102 88.3921 128.67 88.3921H127.048L128.129 82.1749C128.129 81.9046 128.399 81.6343 128.94 81.6343H129.48C131.102 81.6343 132.724 81.6343 133.535 82.7155C134.076 82.9858 134.076 83.7968 134.076 85.1483Z" fill="#139AD6"/>
<path d="M66.768 76.228H57.5773C57.0367 76.228 56.4961 76.7687 56.2258 77.3093L52.4414 101.097C52.4414 101.637 52.7117 101.908 53.2523 101.908H57.5773C58.118 101.908 58.6586 101.367 58.9289 100.826L60.0102 94.339C60.0102 93.7983 60.5508 93.2577 61.3617 93.2577H64.3352C70.5523 93.2577 74.0664 90.2843 74.8773 84.3374C75.418 81.9046 74.8773 79.7421 73.7961 78.3905C72.1742 77.039 70.0117 76.228 66.768 76.228ZM67.8492 85.1483C67.3086 88.3921 64.8758 88.3921 62.443 88.3921H61.0914L62.1727 82.1749C62.1727 81.9046 62.443 81.6343 62.9836 81.6343H63.5242C65.1461 81.6343 66.768 81.6343 67.5789 82.7155C67.8492 82.9858 68.1195 83.7968 67.8492 85.1483Z" fill="#263B80"/>
<path d="M94.6094 84.878H90.2844C90.0141 84.878 89.4734 85.1483 89.4734 85.4187L89.2031 86.7702L88.9328 86.2296C87.8516 84.878 85.9594 84.3374 83.7969 84.3374C78.9313 84.3374 74.6063 88.1218 73.7953 93.2577C73.2547 95.9608 74.0656 98.3936 75.4172 100.016C76.7688 101.637 78.6609 102.178 81.0938 102.178C85.1484 102.178 87.3109 99.7452 87.3109 99.7452L87.0406 101.097C87.0406 101.637 87.3109 101.908 87.8516 101.908H91.9063C92.4469 101.908 92.9875 101.367 93.2578 100.826L95.6906 85.689C95.4203 85.4187 94.8797 84.878 94.6094 84.878ZM88.3922 93.528C87.8516 95.9608 85.9594 97.853 83.2563 97.853C81.9047 97.853 80.8234 97.3124 80.2828 96.7718C79.7422 95.9608 79.4719 94.8796 79.4719 93.528C79.7422 91.0952 81.9047 89.203 84.3375 89.203C85.6891 89.203 86.5 89.7437 87.3109 90.2843C88.1219 91.0952 88.3922 92.4468 88.3922 93.528Z" fill="#263B80"/>
<path d="M160.566 84.878H156.241C155.971 84.878 155.43 85.1483 155.43 85.4187L155.16 86.7702L154.89 86.2296C153.809 84.878 151.916 84.3374 149.754 84.3374C144.888 84.3374 140.563 88.1218 139.752 93.2577C139.212 95.9608 140.023 98.3936 141.374 100.016C142.726 101.637 144.618 102.178 147.051 102.178C151.105 102.178 153.268 99.7452 153.268 99.7452L152.998 101.097C152.998 101.637 153.268 101.908 153.809 101.908H157.863C158.404 101.908 158.945 101.367 159.215 100.826L161.648 85.689C161.377 85.4187 161.107 84.878 160.566 84.878ZM154.349 93.528C153.809 95.9608 151.916 97.853 149.213 97.853C147.862 97.853 146.78 97.3124 146.24 96.7718C145.699 95.9608 145.429 94.8796 145.429 93.528C145.699 91.0952 147.862 89.203 150.295 89.203C151.646 89.203 152.457 89.7437 153.268 90.2843C154.349 91.0952 154.62 92.4468 154.349 93.528Z" fill="#139AD6"/>
<path d="M118.127 84.8779H113.531C112.991 84.8779 112.72 85.1482 112.45 85.4186L106.503 94.6092L103.8 85.9592C103.53 85.4186 103.259 85.1482 102.448 85.1482H98.1234C97.5828 85.1482 97.3125 85.6889 97.3125 86.2295L102.178 100.556L97.5828 107.044C97.3125 107.584 97.5828 108.395 98.1234 108.395H102.448C102.989 108.395 103.259 108.125 103.53 107.855L118.397 86.4998C119.208 85.6889 118.667 84.8779 118.127 84.8779Z" fill="#263B80"/>
<path d="M165.702 77.039L161.918 101.367C161.918 101.908 162.188 102.178 162.729 102.178H166.513C167.054 102.178 167.595 101.637 167.865 101.097L171.649 77.3093C171.649 76.7687 171.379 76.4984 170.838 76.4984H166.513C166.243 76.2281 165.973 76.4984 165.702 77.039Z" fill="#139AD6"/>
<path d="M32.4375 68.1188C30.5453 65.9563 27.0313 64.875 22.1656 64.875H8.65C7.83906 64.875 7.02813 65.6859 6.75781 66.4969L1.35156 101.908C1.35156 102.719 1.89219 103.259 2.43281 103.259H10.8125L12.975 90.0141V90.5547C13.2453 89.7437 14.0563 88.9328 14.8672 88.9328H18.9219C26.7609 88.9328 32.7078 85.6891 34.6 76.7687C34.6 76.4984 34.6 76.2281 34.6 75.9578C34.3297 75.9578 34.3297 75.9578 34.6 75.9578C34.8703 72.4438 34.3297 70.2813 32.4375 68.1188Z" fill="#263B80"/>
<path d="M34.3301 75.958C34.3301 76.2283 34.3301 76.4986 34.3301 76.7689C32.4379 85.9596 26.491 88.933 18.652 88.933H14.5973C13.7863 88.933 12.9754 89.7439 12.7051 90.5549L10.002 107.044C10.002 107.585 10.2723 108.125 11.0832 108.125H18.1113C18.9223 108.125 19.7332 107.585 19.7332 106.774V106.503L21.0848 98.1236V97.583C21.0848 96.7721 21.8957 96.2314 22.7066 96.2314H23.7879C30.5457 96.2314 35.952 93.5283 37.3035 85.4189C37.8441 82.1752 37.5738 79.2018 35.952 77.3096C35.6816 76.7689 35.141 76.2283 34.3301 75.958Z" fill="#139AD6"/>
<path d="M32.4371 75.1469C32.1668 75.1469 31.8965 74.8766 31.6262 74.8766C31.3559 74.8766 31.0855 74.8766 30.8152 74.6063C29.734 74.3359 28.6527 74.3359 27.3012 74.3359H16.759C16.4887 74.3359 16.2184 74.3359 15.948 74.6063C15.4074 74.8766 15.1371 75.4172 15.1371 75.9578L12.9746 90.0141V90.5547C13.2449 89.7437 14.0559 88.9328 14.8668 88.9328H18.9215C26.7605 88.9328 32.7074 85.6891 34.5996 76.7687C34.5996 76.4984 34.5996 76.2281 34.8699 75.9578C34.3293 75.6875 34.059 75.4172 33.5184 75.4172C32.7074 75.1469 32.7074 75.1469 32.4371 75.1469Z" fill="#232C65"/>
</svg>
