<svg width="171" height="45" viewBox="0 0 171 45" fill="none" xmlns="http://www.w3.org/2000/svg">
<path d="M131.995 12.228H122.804C122.263 12.228 121.723 12.7687 121.452 13.3093L117.668 37.0968C117.668 37.6374 117.938 37.9077 118.479 37.9077H123.345C123.885 37.9077 124.155 37.6374 124.155 37.0968L125.237 30.339C125.237 29.7983 125.777 29.2577 126.588 29.2577H129.562C135.779 29.2577 139.293 26.2843 140.104 20.3374C140.645 17.9046 140.104 15.7421 139.023 14.3905C137.401 13.039 134.968 12.228 131.995 12.228ZM133.076 21.1483C132.535 24.3921 130.102 24.3921 127.67 24.3921H126.048L127.129 18.1749C127.129 17.9046 127.399 17.6343 127.94 17.6343H128.48C130.102 17.6343 131.724 17.6343 132.535 18.7155C133.076 18.9858 133.076 19.7968 133.076 21.1483Z" fill="#139AD6"/>
<path d="M65.768 12.228H56.5773C56.0367 12.228 55.4961 12.7687 55.2258 13.3093L51.4414 37.0968C51.4414 37.6374 51.7117 37.9077 52.2523 37.9077H56.5773C57.118 37.9077 57.6586 37.3671 57.9289 36.8265L59.0102 30.339C59.0102 29.7983 59.5508 29.2577 60.3617 29.2577H63.3352C69.5523 29.2577 73.0664 26.2843 73.8773 20.3374C74.418 17.9046 73.8773 15.7421 72.7961 14.3905C71.1742 13.039 69.0117 12.228 65.768 12.228ZM66.8492 21.1483C66.3086 24.3921 63.8758 24.3921 61.443 24.3921H60.0914L61.1727 18.1749C61.1727 17.9046 61.443 17.6343 61.9836 17.6343H62.5242C64.1461 17.6343 65.768 17.6343 66.5789 18.7155C66.8492 18.9858 67.1195 19.7968 66.8492 21.1483Z" fill="#263B80"/>
<path d="M93.6094 20.878H89.2844C89.0141 20.878 88.4734 21.1483 88.4734 21.4187L88.2031 22.7702L87.9328 22.2296C86.8516 20.878 84.9594 20.3374 82.7969 20.3374C77.9313 20.3374 73.6063 24.1218 72.7953 29.2577C72.2547 31.9608 73.0656 34.3936 74.4172 36.0155C75.7688 37.6374 77.6609 38.178 80.0938 38.178C84.1484 38.178 86.3109 35.7452 86.3109 35.7452L86.0406 37.0968C86.0406 37.6374 86.3109 37.9077 86.8516 37.9077H90.9063C91.4469 37.9077 91.9875 37.3671 92.2578 36.8265L94.6906 21.689C94.4203 21.4187 93.8797 20.878 93.6094 20.878ZM87.3922 29.528C86.8516 31.9608 84.9594 33.853 82.2563 33.853C80.9047 33.853 79.8234 33.3124 79.2828 32.7718C78.7422 31.9608 78.4719 30.8796 78.4719 29.528C78.7422 27.0952 80.9047 25.203 83.3375 25.203C84.6891 25.203 85.5 25.7437 86.3109 26.2843C87.1219 27.0952 87.3922 28.4468 87.3922 29.528Z" fill="#263B80"/>
<path d="M159.566 20.878H155.241C154.971 20.878 154.43 21.1483 154.43 21.4187L154.16 22.7702L153.89 22.2296C152.809 20.878 150.916 20.3374 148.754 20.3374C143.888 20.3374 139.563 24.1218 138.752 29.2577C138.212 31.9608 139.023 34.3936 140.374 36.0155C141.726 37.6374 143.618 38.178 146.051 38.178C150.105 38.178 152.268 35.7452 152.268 35.7452L151.998 37.0968C151.998 37.6374 152.268 37.9077 152.809 37.9077H156.863C157.404 37.9077 157.945 37.3671 158.215 36.8265L160.648 21.689C160.377 21.4187 160.107 20.878 159.566 20.878ZM153.349 29.528C152.809 31.9608 150.916 33.853 148.213 33.853C146.862 33.853 145.78 33.3124 145.24 32.7718C144.699 31.9608 144.429 30.8796 144.429 29.528C144.699 27.0952 146.862 25.203 149.295 25.203C150.646 25.203 151.457 25.7437 152.268 26.2843C153.349 27.0952 153.62 28.4468 153.349 29.528Z" fill="#139AD6"/>
<path d="M117.127 20.8779H112.531C111.991 20.8779 111.72 21.1482 111.45 21.4186L105.503 30.6092L102.8 21.9592C102.53 21.4186 102.259 21.1482 101.448 21.1482H97.1234C96.5828 21.1482 96.3125 21.6889 96.3125 22.2295L101.178 36.5561L96.5828 43.0436C96.3125 43.5842 96.5828 44.3951 97.1234 44.3951H101.448C101.989 44.3951 102.259 44.1248 102.53 43.8545L117.397 22.4998C118.208 21.6889 117.667 20.8779 117.127 20.8779Z" fill="#263B80"/>
<path d="M164.702 13.039L160.918 37.3671C160.918 37.9078 161.188 38.1781 161.729 38.1781H165.513C166.054 38.1781 166.595 37.6374 166.865 37.0968L170.649 13.3093C170.649 12.7687 170.379 12.4984 169.838 12.4984H165.513C165.243 12.2281 164.973 12.4984 164.702 13.039Z" fill="#139AD6"/>
<path d="M31.4375 4.11875C29.5453 1.95625 26.0313 0.875 21.1656 0.875H7.65C6.83906 0.875 6.02813 1.68594 5.75781 2.49688L0.351562 37.9078C0.351562 38.7188 0.892187 39.2594 1.43281 39.2594H9.8125L11.975 26.0141V26.5547C12.2453 25.7437 13.0563 24.9328 13.8672 24.9328H17.9219C25.7609 24.9328 31.7078 21.6891 33.6 12.7687C33.6 12.4984 33.6 12.2281 33.6 11.9578C33.3297 11.9578 33.3297 11.9578 33.6 11.9578C33.8703 8.44375 33.3297 6.28125 31.4375 4.11875Z" fill="#263B80"/>
<path d="M33.3301 11.958C33.3301 12.2283 33.3301 12.4986 33.3301 12.7689C31.4379 21.9596 25.491 24.933 17.652 24.933H13.5973C12.7863 24.933 11.9754 25.7439 11.7051 26.5549L9.00195 43.044C9.00195 43.5846 9.27227 44.1252 10.0832 44.1252H17.1113C17.9223 44.1252 18.7332 43.5846 18.7332 42.7736V42.5033L20.0848 34.1236V33.583C20.0848 32.7721 20.8957 32.2314 21.7066 32.2314H22.7879C29.5457 32.2314 34.952 29.5283 36.3035 21.4189C36.8441 18.1752 36.5738 15.2018 34.952 13.3096C34.6816 12.7689 34.141 12.2283 33.3301 11.958Z" fill="#139AD6"/>
<path d="M31.4371 11.1469C31.1668 11.1469 30.8965 10.8766 30.6262 10.8766C30.3559 10.8766 30.0855 10.8766 29.8152 10.6063C28.734 10.3359 27.6527 10.3359 26.3012 10.3359H15.759C15.4887 10.3359 15.2184 10.3359 14.948 10.6063C14.4074 10.8766 14.1371 11.4172 14.1371 11.9578L11.9746 26.0141V26.5547C12.2449 25.7437 13.0559 24.9328 13.8668 24.9328H17.9215C25.7605 24.9328 31.7074 21.6891 33.5996 12.7687C33.5996 12.4984 33.5996 12.2281 33.8699 11.9578C33.3293 11.6875 33.059 11.4172 32.5184 11.4172C31.7074 11.1469 31.7074 11.1469 31.4371 11.1469Z" fill="#232C65"/>
</svg>
