<svg width="25" height="25" viewBox="0 0 25 25" fill="none" xmlns="http://www.w3.org/2000/svg">
<path d="M25 23.4375C25 24.3 24.3 25 23.4375 25H1.5625C0.7 25 0 24.3 0 23.4375V1.5625C0 0.7 0.7 0 1.5625 0H23.4375C24.3 0 25 0.7 25 1.5625V23.4375Z" fill="#3B5998"/>
<path d="M17.1875 25V15.625H20.3125L21.0938 11.7188H17.1875V10.1562C17.1875 8.59375 17.9703 7.8125 19.5312 7.8125H21.0938V3.90625C20.3125 3.90625 19.3438 3.90625 17.9688 3.90625C15.0977 3.90625 13.2812 6.15703 13.2812 9.375V11.7188H10.1562V15.625H13.2812V25H17.1875Z" fill="white"/>
</svg>
