<svg width="28" height="33" viewBox="0 0 28 33" fill="none" xmlns="http://www.w3.org/2000/svg">
<path d="M23.4283 4.83979C18.2217 -0.281881 9.78 -0.281881 4.57333 4.83979C-0.633332 9.96312 -0.633332 18.2681 4.57333 23.3898L14 32.6648L23.4283 23.3898C28.635 18.2681 28.635 9.96312 23.4283 4.83979ZM14 18.4981C12.8867 18.4981 11.8417 18.0648 11.0533 17.2781C9.42834 15.6531 9.42834 13.0098 11.0533 11.3848C11.84 10.5981 12.8867 10.1648 14 10.1648C15.1133 10.1648 16.16 10.5981 16.9467 11.3848C18.5717 13.0098 18.5717 15.6548 16.9467 17.2781C16.16 18.0648 15.1133 18.4981 14 18.4981Z" fill="#195AA3"/>
</svg>
