<svg width="31" height="31" viewBox="0 0 31 31" fill="none" xmlns="http://www.w3.org/2000/svg">
<path d="M22.0862 28.7617C19.7194 30.0096 17.3072 30.4851 14.4217 30.4851C7.36053 30.4851 1.37549 25.317 1.37549 17.0498C1.37549 8.17934 7.53223 0.515137 17.0936 0.515137C24.5855 0.515137 29.6238 5.76885 29.6238 12.9599C29.6238 19.4181 26.0056 23.2065 21.9596 23.2065C20.2345 23.2065 18.6426 22.0442 18.7727 19.4184H18.601C17.0938 21.9584 15.1126 23.2065 12.5287 23.2065C10.0323 23.2065 7.87968 21.1831 7.87968 17.7826C7.87968 12.4427 12.0974 7.57607 18.0824 7.57607C19.9333 7.57607 21.5706 7.96341 22.6892 8.48083L21.2271 16.2748C20.582 19.5479 21.0971 21.0536 22.5172 21.0978C24.7153 21.14 27.1697 18.2124 27.1697 13.2177C27.1697 6.97337 23.4223 2.49637 16.7461 2.49637C9.73055 2.49637 3.82963 8.04984 3.82963 16.7922C3.82963 23.9833 8.52429 28.4169 14.8949 28.4169C17.3494 28.4169 19.6318 27.9015 21.3986 26.9109L22.0862 28.7617ZM19.7197 10.1603C19.2881 10.0305 18.5556 9.85879 17.5673 9.85879C13.7771 9.85879 10.7197 13.4333 10.7197 17.6091C10.7197 19.5042 11.6664 20.8819 13.5629 20.8819C16.0596 20.8819 18.3417 17.695 18.8149 15.0267L19.7197 10.1603Z" fill="#195AA3" stroke="#195AA3" stroke-miterlimit="10"/>
</svg>
