<svg width="18" height="20" viewBox="0 0 18 20" fill="none" xmlns="http://www.w3.org/2000/svg">
<path d="M11.9258 11.1235C13.5274 10.138 14.6009 8.37552 14.6009 6.36305C14.6009 3.27862 12.0881 0.76923 8.99993 0.76923C5.91174 0.76923 3.39897 3.27862 3.39897 6.36305C3.39897 8.37552 4.47249 10.138 6.0741 11.1235C2.6158 11.8982 0.189087 14.0145 0.189087 16.5756C0.189087 18.6715 5.7277 19.2308 8.99993 19.2308C12.2722 19.2308 17.8108 18.6715 17.8108 16.5756C17.8108 14.0145 15.3841 11.8982 11.9258 11.1235ZM4.55282 6.36305C4.55282 3.91489 6.54801 1.92308 8.99993 1.92308C11.4519 1.92308 13.4471 3.91489 13.4471 6.36305C13.4471 8.81122 11.4519 10.8027 8.99993 10.8027C6.54801 10.8027 4.55282 8.81122 4.55282 6.36305ZM8.99993 18.0769C4.2961 18.0769 1.4804 17.0846 1.34326 16.5717C1.34683 14.0266 4.78039 11.9565 8.99993 11.9565C13.2191 11.9565 16.6523 14.0262 16.6566 16.571C16.5228 17.0835 13.7069 18.0769 8.99993 18.0769Z" fill="#6D90A6"/>
</svg>
