<svg width="77" height="77" viewBox="0 0 77 77" fill="none" xmlns="http://www.w3.org/2000/svg">
<path d="M56.6698 4.64803C53.6638 4.64803 53.6638 0 50.6577 0C47.6516 0 47.6516 4.64803 44.6456 4.64803C41.6395 4.64803 41.6395 0 38.6334 0C35.628 0 35.628 4.64803 32.6219 4.64803C29.6164 4.64803 29.6164 0 26.6104 0C23.6049 0 23.6049 4.64803 20.5994 4.64803C18.4011 4.64803 17.8107 2.16129 16.476 0.825977C15.7804 0.12983 14.5879 0.637988 14.5879 1.62141V75.3783C14.5879 76.3623 15.7804 76.8699 16.476 76.1743C17.8101 74.8384 18.4011 72.3523 20.5994 72.3523C23.6049 72.3523 23.6049 76.9997 26.6104 76.9997C29.6164 76.9997 29.6164 72.3523 32.6219 72.3523C35.628 72.3523 35.628 76.9997 38.6334 76.9997C41.6395 76.9997 41.6395 72.3523 44.6456 72.3523C47.6516 72.3523 47.6516 76.9997 50.6577 76.9997C53.6638 76.9997 53.6638 72.3523 56.6698 72.3523C58.8693 72.3523 59.4597 74.839 60.7944 76.1743C61.49 76.8699 62.6825 76.3623 62.6825 75.3789V1.62141C62.6825 0.637988 61.49 0.12983 60.7944 0.825389C59.4597 2.16129 58.8693 4.64803 56.6698 4.64803Z" fill="#EEEDEE"/>
<path d="M56.6696 4.64813C55.4547 4.64813 54.7303 3.88853 54.1006 2.98325V74.0173C54.7303 73.112 55.4541 72.3524 56.6696 72.3524C58.869 72.3524 59.4595 74.8397 60.7942 76.175C61.4897 76.8706 62.6823 76.3624 62.6823 75.379V1.6215C62.6823 0.638086 61.4897 0.129928 60.7942 0.825487C59.4595 2.16138 58.869 4.64813 56.6696 4.64813Z" fill="#D6D5D6"/>
<path d="M40.0067 34.908H20.0992C19.6404 34.908 19.2686 34.5361 19.2686 34.0773V30.9073C19.2686 30.4485 19.6404 30.0767 20.0992 30.0767H40.0067C40.4655 30.0767 40.8374 30.4485 40.8374 30.9073V34.0773C40.8374 34.5361 40.4655 34.908 40.0067 34.908Z" fill="#68A1D7"/>
<path d="M56.5657 64.9627H44.441C43.6485 64.9627 43.0059 64.32 43.0059 63.5275V61.5671C43.0059 60.774 43.6485 60.1313 44.441 60.1313H56.5657C57.3582 60.1313 58.0009 60.774 58.0009 61.5671V63.5275C58.0009 64.32 57.3582 64.9627 56.5657 64.9627Z" fill="#68A1D7"/>
<path d="M19.2686 12.8938V16.0132C19.2686 16.4861 19.6522 16.8692 20.1245 16.8692H57.1454C57.6183 16.8692 58.0013 16.4861 58.0013 16.0132V12.8938C58.0013 12.4209 57.6183 12.0378 57.1454 12.0378H20.1245C19.6522 12.0378 19.2686 12.4209 19.2686 12.8938Z" fill="#68A1D7"/>
<path d="M58.0012 21.876H19.2685C18.6269 21.876 18.1064 22.3959 18.1064 23.0374C18.1064 23.6795 18.6269 24.1994 19.2685 24.1994H58.0012C58.6428 24.1994 59.1632 23.6795 59.1632 23.0374C59.1632 22.3959 58.6428 21.876 58.0012 21.876Z" fill="#F94530"/>
<path d="M33.3234 41.1644C33.3234 40.5229 32.8035 40.0024 32.1614 40.0024H19.2694C18.6273 40.0024 18.1074 40.5229 18.1074 41.1644C18.1074 41.8066 18.6273 42.3265 19.2694 42.3265H32.1614C32.8035 42.3265 33.3234 41.8066 33.3234 41.1644Z" fill="#5C5C5C"/>
<path d="M30.0535 45.864H19.2694C18.6273 45.864 18.1074 46.3845 18.1074 47.026C18.1074 47.6675 18.6273 48.188 19.2694 48.188H30.0535C30.695 48.188 31.2155 47.6675 31.2155 47.026C31.2155 46.3845 30.695 45.864 30.0535 45.864Z" fill="#5C5C5C"/>
<path d="M30.0535 51.7258H19.2694C18.6273 51.7258 18.1074 52.2457 18.1074 52.8873C18.1074 53.5294 18.6273 54.0493 19.2694 54.0493H30.0535C30.695 54.0493 31.2155 53.5294 31.2155 52.8873C31.2155 52.2457 30.695 51.7258 30.0535 51.7258Z" fill="#5C5C5C"/>
<path d="M58.002 51.7258H52.6097C51.9681 51.7258 51.4482 52.2457 51.4482 52.8878C51.4482 53.5293 51.9681 54.0498 52.6097 54.0498H58.002C58.6441 54.0498 59.164 53.5293 59.164 52.8878C59.164 52.2457 58.6435 51.7258 58.002 51.7258Z" fill="#68A1D7"/>
<path d="M58.002 45.864H52.6097C51.9681 45.864 51.4482 46.3845 51.4482 47.026C51.4482 47.6675 51.9681 48.188 52.6097 48.188H58.002C58.6441 48.188 59.164 47.6675 59.164 47.026C59.164 46.3845 58.6435 45.864 58.002 45.864Z" fill="#68A1D7"/>
<path d="M58.002 40.0024H52.6097C51.9681 40.0024 51.4482 40.5229 51.4482 41.1644C51.4482 41.8066 51.9681 42.3265 52.6097 42.3265H58.002C58.6441 42.3265 59.164 41.8066 59.164 41.1644C59.164 40.5229 58.6435 40.0024 58.002 40.0024Z" fill="#68A1D7"/>
</svg>
