<svg width="28" height="27" viewBox="0 0 28 27" fill="none" xmlns="http://www.w3.org/2000/svg">
<path d="M0.814048 14.4491C4.08958 14.4491 7.1688 15.7287 9.48284 18.0559C11.8011 20.3832 13.0775 23.4831 13.0775 26.7829H18.1252C18.1252 17.1982 10.3591 9.40089 0.814048 9.40089V14.4491ZM0.821985 5.50041C12.4959 5.50041 21.9939 15.0503 21.9939 26.7893H27.0416C27.0416 12.2663 15.2788 0.452698 0.821985 0.452698V5.50041ZM7.80221 23.2629C7.80221 25.1933 6.23641 26.7591 4.30601 26.7591C2.37562 26.7591 0.809814 25.1938 0.809814 23.2629C0.809814 21.3315 2.37509 19.7667 4.30548 19.7667C6.23588 19.7667 7.80221 21.3315 7.80221 23.2629Z" fill="#4DA987"/>
</svg>
