<svg width="21" height="21" viewBox="0 0 21 21" fill="none" xmlns="http://www.w3.org/2000/svg">
<path fill-rule="evenodd" clip-rule="evenodd" d="M10.4744 7.06733C11.1014 7.06733 11.6102 7.57618 11.6102 8.20298C11.6102 8.82988 11.1014 9.33873 10.4744 9.33873H9.3389V10.4744C9.3389 11.1013 8.83 11.61 8.20315 11.61C7.5763 11.61 7.0674 11.1013 7.0674 10.4744V9.33873H5.9318C5.30499 9.33873 4.79605 8.82988 4.79605 8.20298C4.79605 7.57618 5.30499 7.06733 5.9318 7.06733H7.0674V5.93168C7.0674 5.30488 7.5763 4.79598 8.20315 4.79598C8.83 4.79598 9.3389 5.30488 9.3389 5.93168V7.06733H10.4744ZM20.1686 17.6156C20.8731 18.3196 20.8731 19.4645 20.1686 20.1685C19.4646 20.8731 18.3196 20.8731 17.6204 20.1685L12.4008 14.9534C11.1834 15.7124 9.7477 16.1529 8.20315 16.1529C3.8103 16.1529 0.253395 12.5958 0.253395 8.20298C0.253395 3.81028 3.8103 0.253235 8.20315 0.253235C12.5959 0.253235 16.1529 3.81028 16.1529 8.20298C16.1529 9.74308 15.7124 11.1833 14.9538 12.4006L20.1686 17.6156ZM13.8815 8.20298C13.8815 5.06863 11.3378 2.52458 8.20315 2.52458C5.0685 2.52458 2.52469 5.06863 2.52469 8.20298C2.52469 11.3377 5.0685 13.8814 8.20315 13.8814C11.3378 13.8814 13.8815 11.3377 13.8815 8.20298Z" fill="#8BB2CA"/>
</svg>
