<svg width="223" height="41" viewBox="0 0 223 41" fill="none" xmlns="http://www.w3.org/2000/svg">
<g clip-path="url(#clip0)">
<path d="M15.0972 12.1561H11.0827L11.0154 11.8289C10.9297 10.9955 10.691 10.4769 10.3055 10.2731C9.91995 10.0694 8.97752 9.96446 7.48433 9.96446C5.34245 9.96446 4.27151 10.6683 4.27151 12.0635C4.27151 13.0143 4.46122 13.5823 4.83452 13.7675C5.20782 13.9527 6.48683 14.0885 8.66542 14.1997C11.5906 14.3417 13.4999 14.7368 14.3873 15.3727C15.2746 16.0086 15.7091 17.3236 15.7091 19.2992C15.7091 21.4106 15.1217 22.8718 13.9467 23.6826C12.7717 24.4934 10.6584 24.905 7.60672 24.9173C4.68153 24.9173 2.67429 24.5531 1.60335 23.8122C0.532409 23.0714 0 21.6946 0 19.682V19.2436H4.28375C4.23384 19.434 4.19905 19.628 4.17972 19.824C4.00837 21.3551 5.18334 22.1206 7.6924 22.1206C10.2015 22.1206 11.5845 21.3612 11.5845 19.8425C11.5845 18.3237 10.7706 17.6508 9.13664 17.6508C5.46485 17.6508 3.04759 17.301 1.88485 16.6013C0.709879 15.9036 0.122393 14.4528 0.122393 12.2426C0.122393 10.267 0.654802 8.92933 1.71962 8.22963C2.78444 7.52994 4.82432 7.18009 7.83927 7.18009C10.6951 7.18009 12.6167 7.51759 13.604 8.19259C14.6015 8.8717 15.0972 10.1867 15.0972 12.1561Z" fill="#195AA3"/>
<path d="M61.8085 0V10.2546H61.8941C62.6611 8.19671 64.4195 7.16775 67.1693 7.16775C71.1715 7.16775 73.1726 9.07956 73.1726 12.9032V24.6951H69.0664V13.5082C69.0664 11.4832 68.0464 10.4707 66.0065 10.4707C63.2078 10.4872 61.8085 11.9524 61.8085 14.8664V24.6951H57.7144V0H61.8085Z" fill="#195AA3"/>
<path d="M111.928 7.40852V25.0161C111.928 27.8355 111.363 29.7699 110.233 30.8195C109.103 31.869 107.02 32.3938 103.985 32.3938C101.048 32.3938 99.0893 31.9986 98.0857 31.2022C97.0821 30.4058 96.5987 28.8315 96.5987 26.4793H100.583C100.583 27.6029 100.791 28.3314 101.195 28.6401C101.598 28.9488 102.547 29.1217 103.991 29.1217C106.537 29.1217 107.81 28.0598 107.81 25.936V22.0465H107.718C106.992 23.8945 105.319 24.8186 102.7 24.8186C100.081 24.8186 98.3101 24.1847 97.3881 22.917C96.4334 21.6494 95.9581 19.2869 95.9622 15.8295C95.9622 12.5698 96.4375 10.3205 97.3881 9.08162C98.3366 7.84686 100.056 7.22948 102.559 7.22948C105.28 7.22948 107.067 8.24816 107.92 10.2855H108.006L107.822 7.40852H111.928ZM103.844 10.4954C102.265 10.4954 101.25 10.8226 100.784 11.4647C100.319 12.1068 100.111 13.5761 100.111 15.8666C100.111 18.3073 100.336 19.8631 100.784 20.534C101.231 21.2131 102.265 21.5465 103.881 21.5465C105.497 21.5465 106.537 21.2007 107.014 20.5093C107.492 19.8178 107.73 18.2805 107.73 15.9036C107.73 13.6276 107.492 12.1562 107.014 11.4894C106.537 10.8226 105.48 10.4913 103.844 10.4954Z" fill="#195AA3"/>
<path d="M120.068 0V3.45731H115.961V0H120.068ZM120.068 7.40852V24.6951H115.961V7.40852H120.068Z" fill="#195AA3"/>
<path d="M135.146 19.1387H139.271V19.8055C139.271 23.1804 136.76 24.8679 131.738 24.8679C128.335 24.8679 126.101 24.2876 125.055 23.1146C124.009 21.9416 123.476 19.4659 123.476 15.7061C123.476 12.3434 124.025 10.0797 125.122 8.91492C126.22 7.75014 128.37 7.17186 131.572 7.18009C134.632 7.18009 136.682 7.74397 137.723 8.87171C138.763 9.99945 139.283 12.2158 139.283 15.5209V16.7865H127.656C127.631 17.1693 127.619 17.4224 127.619 17.5459C127.619 19.2457 127.88 20.3796 128.402 20.9476C128.925 21.5156 129.961 21.7975 131.511 21.7934C133.017 21.7934 133.996 21.6267 134.455 21.2995C134.914 20.9723 135.146 20.25 135.146 19.1387ZM135.183 14.2367V13.5453C135.183 12.1747 134.944 11.2795 134.473 10.872C134.002 10.4645 132.98 10.2546 131.413 10.2546C129.847 10.2546 128.886 10.5016 128.427 10.9955C127.968 11.4894 127.735 12.5698 127.735 14.2367H135.183Z" fill="#195AA3"/>
<path d="M153.738 19.1387H157.887V19.8055C157.887 23.1804 155.376 24.8679 150.354 24.8679C146.951 24.8679 144.717 24.2876 143.671 23.1146C142.625 21.9416 142.092 19.4659 142.092 15.7061C142.092 12.3434 142.641 10.0797 143.738 8.91492C144.836 7.75014 146.982 7.17186 150.176 7.18009C153.236 7.18009 155.276 7.74397 156.296 8.87171C157.316 9.99945 157.846 12.2158 157.887 15.5209V16.7865H146.26C146.26 17.1693 146.229 17.4039 146.229 17.5459C146.229 19.2457 146.488 20.3796 147.006 20.9476C147.524 21.5156 148.561 21.7975 150.115 21.7934C151.62 21.7934 152.6 21.6267 153.059 21.2995C153.518 20.9723 153.738 20.25 153.738 19.1387ZM153.775 14.2367V13.5453C153.775 12.1747 153.536 11.2795 153.065 10.872C152.593 10.4645 151.571 10.2546 150.005 10.2546C148.438 10.2546 147.477 10.5016 147.018 10.9955C146.559 11.4894 146.327 12.5698 146.327 14.2367H153.775Z" fill="#195AA3"/>
<path d="M161.283 7.40852H165.353L165.194 10.3225H165.286C166.102 8.23581 167.895 7.19244 170.665 7.19244C174.716 7.19244 176.742 9.09808 176.742 12.9093V24.6951H172.635V13.6193L172.544 12.3846C172.356 11.1251 171.346 10.4954 169.514 10.4954C166.756 10.4954 165.375 11.8166 165.371 14.459V24.6951H161.265L161.283 7.40852Z" fill="#195AA3"/>
<path d="M184.685 20.2376V24.6951H180.579V20.2376H184.685Z" fill="#6D90A6"/>
<path d="M199.58 19.1387H203.705V19.8055C203.705 23.1804 201.196 24.8679 196.178 24.8679C192.771 24.8679 190.541 24.2835 189.489 23.1146C188.436 21.9457 187.91 19.4762 187.91 15.7061C187.91 12.3434 188.461 10.0797 189.562 8.91492C190.664 7.75014 192.808 7.17186 195.994 7.18009C199.054 7.18009 201.104 7.74397 202.144 8.87171C203.185 9.99945 203.705 12.2158 203.705 15.5209V16.7865H192.108C192.084 17.1693 192.071 17.4224 192.071 17.5459C192.071 19.2457 192.33 20.3796 192.848 20.9476C193.369 21.5094 194.409 21.7934 195.957 21.7934C197.506 21.7934 198.448 21.6267 198.901 21.2995C199.354 20.9723 199.58 20.25 199.58 19.1387ZM199.617 14.2367V13.5453C199.617 12.1747 199.384 11.2795 198.907 10.872C198.43 10.4645 197.414 10.2546 195.847 10.2546C194.28 10.2546 193.32 10.5016 192.861 10.9955C192.402 11.4894 192.157 12.5883 192.157 14.2552L199.617 14.2367Z" fill="#6D90A6"/>
<path d="M218.172 19.1387H222.296V19.8055C222.296 23.1804 219.787 24.8679 214.769 24.8679C211.362 24.8679 209.133 24.2835 208.08 23.1146C207.028 21.9457 206.501 19.4762 206.501 15.7061C206.501 12.3434 207.052 10.0797 208.154 8.91492C209.255 7.75014 211.399 7.17186 214.585 7.18009C217.645 7.18009 219.695 7.74397 220.736 8.87171C221.776 9.99945 222.296 12.2158 222.296 15.5209V16.7865H210.7C210.675 17.1693 210.663 17.4224 210.663 17.5459C210.663 19.2457 210.922 20.3796 211.44 20.9476C211.958 21.5156 212.996 21.7975 214.555 21.7934C216.06 21.7934 217.039 21.6267 217.492 21.2995C217.945 20.9723 218.172 20.25 218.172 19.1387ZM218.208 14.2367V13.5453C218.208 12.1747 217.976 11.2795 217.505 10.872C217.033 10.4645 216.005 10.2546 214.445 10.2546C212.884 10.2546 211.923 10.5016 211.458 10.9955C210.993 11.4894 210.773 12.5698 210.773 14.2367H218.208Z" fill="#6D90A6"/>
<path d="M115.735 40.8395V31.1158H118.299C118.926 31.0859 119.555 31.1315 120.172 31.2516C120.661 31.4217 121.074 31.7635 121.334 32.2147C121.621 32.7808 121.776 33.4055 121.786 34.0412C121.797 34.6768 121.663 35.3065 121.395 35.8819C121.178 36.3106 120.834 36.6602 120.41 36.8821C119.757 37.1161 119.064 37.2148 118.372 37.1723H117.326V40.8395H115.735ZM117.326 32.758V35.5239H118.207C118.619 35.5463 119.032 35.5046 119.431 35.4004C119.649 35.309 119.831 35.1486 119.951 34.9435C120.097 34.7001 120.169 34.419 120.159 34.1348C120.164 33.8542 120.09 33.578 119.945 33.3384C119.827 33.1345 119.644 32.9776 119.425 32.8938C118.996 32.7905 118.555 32.751 118.115 32.7765L117.326 32.758Z" fill="#195AA3"/>
<path d="M124.229 35.9375L122.852 35.6288C122.949 35.0393 123.24 34.5 123.678 34.0977C124.159 33.7545 124.743 33.5888 125.33 33.6285C125.834 33.6017 126.337 33.6947 126.799 33.9002C127.115 34.0587 127.369 34.3196 127.521 34.641C127.701 35.1896 127.774 35.7684 127.735 36.345V38.5181C127.726 38.9742 127.751 39.4302 127.809 39.8825C127.866 40.2099 127.957 40.5305 128.078 40.8395H126.579L126.383 40.0678C126.146 40.3482 125.857 40.5789 125.532 40.7469C125.243 40.9039 124.919 40.9846 124.59 40.9815C124.335 40.9889 124.082 40.9428 123.846 40.8461C123.61 40.7493 123.396 40.6041 123.219 40.4197C122.852 40.0055 122.661 39.4622 122.687 38.9071C122.678 38.5467 122.754 38.1893 122.907 37.8637C123.044 37.5758 123.255 37.3304 123.519 37.1537C123.91 36.9257 124.336 36.765 124.78 36.6784C125.284 36.5801 125.777 36.427 126.248 36.2215C126.265 35.9612 126.236 35.7 126.163 35.4498C126.1 35.3184 125.994 35.2135 125.863 35.1534C125.671 35.0662 125.461 35.026 125.251 35.0361C125.022 35.024 124.796 35.0891 124.608 35.2214C124.411 35.4145 124.278 35.6648 124.229 35.9375ZM126.254 37.4563C125.959 37.5681 125.656 37.6609 125.349 37.7341C125.014 37.7939 124.699 37.936 124.431 38.1477C124.354 38.2292 124.294 38.3265 124.257 38.433C124.22 38.5395 124.207 38.6527 124.217 38.7651C124.21 39.0134 124.295 39.2553 124.455 39.4442C124.53 39.5344 124.623 39.6063 124.729 39.6544C124.836 39.7026 124.951 39.7257 125.067 39.722C125.289 39.7122 125.502 39.6347 125.679 39.4998C125.873 39.3688 126.026 39.1846 126.12 38.9688C126.221 38.6076 126.262 38.2322 126.242 37.8575L126.254 37.4563Z" fill="#195AA3"/>
<path d="M130.685 40.8395H129.167V33.7952H130.569V34.7954C130.726 34.4467 130.946 34.1306 131.218 33.8631C131.402 33.7064 131.637 33.623 131.878 33.6285C132.238 33.6325 132.587 33.7562 132.87 33.9804L132.399 35.6041C132.204 35.4235 131.953 35.3166 131.689 35.3016C131.585 35.3006 131.482 35.3208 131.386 35.3612C131.291 35.4015 131.204 35.4611 131.132 35.5362C130.934 35.7781 130.814 36.0755 130.789 36.3882C130.699 37.1419 130.664 37.9013 130.685 38.6601V40.8395Z" fill="#195AA3"/>
<path d="M133.525 32.8383V31.1158H135.042V32.8383H133.525ZM133.525 40.8642V33.7952H135.042V40.8395L133.525 40.8642Z" fill="#195AA3"/>
<path d="M136.468 33.7952H137.863V34.7583C138.073 34.4203 138.353 34.1318 138.683 33.9125C138.972 33.725 139.308 33.6263 139.65 33.6285C139.989 33.6201 140.323 33.7171 140.605 33.9063C140.896 34.121 141.125 34.4111 141.266 34.746C141.481 34.4137 141.76 34.1283 142.086 33.9063C142.363 33.7256 142.686 33.6291 143.016 33.6285C143.374 33.6177 143.726 33.7167 144.026 33.9125C144.304 34.1135 144.517 34.3927 144.638 34.7151C144.811 35.2357 144.885 35.7843 144.858 36.3326V40.8395H143.341V36.808C143.375 36.3311 143.313 35.852 143.157 35.4004C143.099 35.2896 143.01 35.1982 142.901 35.1369C142.793 35.0756 142.669 35.047 142.545 35.0547C142.378 35.0544 142.215 35.0995 142.071 35.1854C141.928 35.2713 141.811 35.3946 141.731 35.5424C141.471 36.1419 141.363 36.7979 141.419 37.4501V40.8395H139.901V36.9747C139.927 36.4775 139.886 35.979 139.779 35.493C139.732 35.3555 139.641 35.2378 139.52 35.1585C139.399 35.0791 139.256 35.0426 139.112 35.0547C138.889 35.0572 138.673 35.1355 138.5 35.2769C138.298 35.4476 138.157 35.6792 138.096 35.9375C137.991 36.4218 137.948 36.9177 137.967 37.413V40.8395H136.468V33.7952Z" fill="#195AA3"/>
<path d="M148.946 38.833L150.464 38.549C150.471 38.7031 150.508 38.8543 150.574 38.9937C150.639 39.1331 150.732 39.2579 150.846 39.3608C150.96 39.4637 151.093 39.5426 151.238 39.593C151.382 39.6433 151.535 39.6641 151.688 39.6541C151.975 39.6762 152.261 39.6024 152.502 39.4442C152.586 39.3807 152.655 39.2977 152.702 39.2022C152.749 39.1067 152.772 39.0013 152.771 38.8947C152.78 38.7628 152.738 38.6325 152.655 38.5305C152.512 38.4112 152.341 38.3305 152.159 38.2959C151.315 38.1348 150.509 37.812 149.785 37.3451C149.577 37.1472 149.415 36.9061 149.309 36.6384C149.203 36.3708 149.157 36.0832 149.173 35.7955C149.16 35.5045 149.207 35.214 149.313 34.9428C149.418 34.6716 149.579 34.4258 149.785 34.2212C150.279 33.7863 150.923 33.5646 151.578 33.6038C152.18 33.564 152.78 33.7174 153.291 34.0422C153.718 34.4087 154.008 34.9122 154.111 35.4683L152.685 35.7893C152.646 35.5367 152.513 35.3086 152.313 35.1515C152.112 34.9944 151.861 34.92 151.608 34.9435C151.333 34.9226 151.058 34.9781 150.813 35.104C150.74 35.1485 150.68 35.211 150.638 35.2856C150.596 35.3602 150.574 35.4444 150.574 35.53C150.574 35.6077 150.595 35.6839 150.634 35.7511C150.672 35.8182 150.728 35.874 150.794 35.9128C151.223 36.1262 151.675 36.2878 152.141 36.3944C152.782 36.5244 153.376 36.8273 153.86 37.271C154.173 37.651 154.333 38.1359 154.307 38.6293C154.317 38.9484 154.26 39.2662 154.138 39.5611C154.017 39.856 153.834 40.1214 153.603 40.3394C153.076 40.8049 152.387 41.0422 151.688 41C151.031 41.0343 150.383 40.8403 149.852 40.4505C149.368 40.0379 149.047 39.4641 148.946 38.833Z" fill="#195AA3"/>
<path d="M159.374 40.8395V39.7838C159.176 40.1481 158.889 40.456 158.542 40.679C158.225 40.8871 157.855 40.9986 157.477 41C157.118 41.006 156.766 40.9027 156.467 40.7037C156.162 40.4974 155.928 40.1993 155.8 39.8517C155.63 39.3368 155.556 38.7948 155.58 38.2527V33.7952H157.097V37.0426C157.082 37.63 157.105 38.2177 157.165 38.8021C157.196 39.0258 157.304 39.2312 157.471 39.3825C157.629 39.5183 157.832 39.5908 158.04 39.5862C158.298 39.5853 158.548 39.4911 158.744 39.3207C158.958 39.1449 159.106 38.9012 159.166 38.6293C159.254 38.0162 159.287 37.3962 159.264 36.7771V33.7952H160.788V40.8395H159.374Z" fill="#195AA3"/>
<path d="M166.118 40.8395V39.7838C165.921 40.1473 165.637 40.4552 165.292 40.679C164.973 40.8873 164.601 40.9988 164.221 41C163.862 41.006 163.51 40.9027 163.211 40.7037C162.906 40.4974 162.672 40.1993 162.544 39.8517C162.374 39.3368 162.299 38.7948 162.324 38.2527V33.7952H163.841V37.0426C163.826 37.63 163.849 38.2177 163.909 38.8021C163.94 39.0258 164.048 39.2312 164.215 39.3825C164.373 39.5183 164.576 39.5908 164.784 39.5862C165.042 39.5864 165.292 39.4921 165.488 39.3207C165.702 39.1449 165.85 38.9012 165.91 38.6293C166.001 38.0165 166.036 37.3964 166.014 36.7771V33.7952H167.532V40.8395H166.118Z" fill="#195AA3"/>
<path d="M170.622 31.1158V34.6842C170.826 34.3628 171.097 34.0909 171.417 33.8878C171.704 33.716 172.032 33.6264 172.366 33.6285C172.778 33.6142 173.181 33.7428 173.51 33.9928C173.833 34.2597 174.065 34.6226 174.171 35.03C174.286 35.5798 174.333 36.1417 174.312 36.7031V40.8395H172.794V37.1352C172.835 36.5904 172.779 36.0427 172.629 35.5177C172.556 35.3758 172.444 35.2587 172.306 35.1807C172.168 35.1028 172.01 35.0676 171.852 35.0794C171.673 35.0728 171.496 35.1131 171.337 35.1964C171.178 35.2798 171.044 35.4032 170.946 35.5547C170.678 36.1038 170.566 36.7171 170.622 37.3266V40.8642H169.098V31.1158H170.622Z" fill="#195AA3"/>
<path d="M175.499 37.2155C175.491 36.5631 175.629 35.9172 175.903 35.3263C176.136 34.812 176.504 34.3721 176.968 34.0545C177.41 33.7694 177.925 33.6213 178.449 33.6285C178.872 33.6131 179.292 33.7051 179.67 33.8961C180.049 34.087 180.374 34.3707 180.615 34.7213C181.146 35.4643 181.423 36.3614 181.405 37.2772C181.416 37.9544 181.276 38.6255 180.995 39.2405C180.765 39.7734 180.392 40.2309 179.918 40.5617C179.485 40.8523 178.975 41.0051 178.455 41C178.052 41.0073 177.652 40.9228 177.285 40.7529C176.919 40.5829 176.595 40.3319 176.338 40.0184C175.729 39.2182 175.431 38.2216 175.499 37.2155ZM177.048 37.3143C177.01 37.8866 177.156 38.456 177.464 38.938C177.575 39.1038 177.724 39.2399 177.899 39.3346C178.074 39.4292 178.269 39.4796 178.467 39.4813C178.663 39.4781 178.854 39.4262 179.025 39.3304C179.196 39.2345 179.341 39.0976 179.446 38.9318C179.752 38.4466 179.896 37.8754 179.856 37.3019C179.892 36.7357 179.746 36.1728 179.44 35.6967C179.334 35.5285 179.188 35.3899 179.014 35.2939C178.841 35.1979 178.647 35.1476 178.449 35.1476C178.251 35.1476 178.057 35.1979 177.883 35.2939C177.71 35.3899 177.564 35.5285 177.458 35.6967C177.155 36.1788 177.012 36.745 177.048 37.3143Z" fill="#195AA3"/>
<path d="M182.243 37.2155C182.235 36.5631 182.373 35.9172 182.647 35.3263C182.88 34.812 183.248 34.3721 183.712 34.0545C184.154 33.7704 184.669 33.6224 185.193 33.6285C185.616 33.6138 186.037 33.706 186.416 33.8968C186.796 34.0877 187.122 34.3711 187.365 34.7213C187.894 35.4649 188.169 36.362 188.149 37.2772C188.16 37.9544 188.02 38.6255 187.739 39.2405C187.507 39.776 187.129 40.2342 186.649 40.5617C186.216 40.8523 185.707 41.0051 185.187 41C184.783 41.0073 184.384 40.9228 184.017 40.7528C183.65 40.5829 183.327 40.3319 183.069 40.0184C182.468 39.2149 182.175 38.2197 182.243 37.2155ZM183.791 37.3143C183.753 37.8866 183.899 38.456 184.208 38.938C184.319 39.1038 184.468 39.2399 184.643 39.3346C184.818 39.4292 185.013 39.4795 185.211 39.4813C185.407 39.4781 185.598 39.4262 185.769 39.3304C185.94 39.2345 186.085 39.0976 186.19 38.9318C186.496 38.4466 186.64 37.8754 186.6 37.3019C186.636 36.7357 186.49 36.1728 186.184 35.6967C186.075 35.5314 185.928 35.3952 185.755 35.2995C185.583 35.2039 185.39 35.1516 185.193 35.1473C184.997 35.1526 184.805 35.2053 184.634 35.3009C184.462 35.3965 184.316 35.5323 184.208 35.6967C183.9 36.1768 183.754 36.744 183.791 37.3143Z" fill="#195AA3"/>
<path d="M189.342 40.8395V31.1158H190.86V40.8395H189.342Z" fill="#195AA3"/>
<path d="M197.665 40.8395H196.257V39.8023C196.057 40.1627 195.776 40.4712 195.437 40.7037C195.147 40.8928 194.81 40.9956 194.464 41C194.125 40.992 193.793 40.9 193.497 40.732C193.202 40.5641 192.952 40.3254 192.769 40.0369C192.249 39.2159 192 38.2497 192.059 37.2772C192.004 36.3226 192.253 35.3752 192.769 34.5731C192.96 34.2916 193.215 34.0608 193.514 33.9006C193.812 33.7404 194.144 33.6555 194.482 33.6532C194.799 33.651 195.11 33.7364 195.382 33.9002C195.686 34.0875 195.947 34.338 196.147 34.6348V31.1158H197.665V40.8395ZM193.626 37.1352C193.605 37.6185 193.661 38.1019 193.791 38.5675C193.873 38.8423 194.032 39.087 194.25 39.2713C194.439 39.4238 194.675 39.5066 194.917 39.5059C195.096 39.4985 195.27 39.4446 195.422 39.3494C195.574 39.2542 195.7 39.121 195.786 38.9627C196.064 38.4608 196.192 37.888 196.153 37.3143C196.199 36.7091 196.074 36.1032 195.792 35.5671C195.7 35.4058 195.569 35.2714 195.41 35.1772C195.251 35.083 195.071 35.0322 194.886 35.03C194.706 35.0342 194.529 35.0846 194.373 35.1764C194.216 35.2681 194.086 35.3983 193.993 35.5547C193.709 36.0388 193.579 36.5989 193.62 37.1599L193.626 37.1352Z" fill="#195AA3"/>
<path d="M202.909 40.8395V39.7838C202.716 40.1496 202.431 40.4582 202.083 40.679C201.764 40.8873 201.392 40.9988 201.012 41C200.654 41.0027 200.303 40.8997 200.002 40.7037C199.697 40.4974 199.463 40.1993 199.335 39.8517C199.165 39.3368 199.091 38.7948 199.115 38.2527V33.7952H200.633V37.0426C200.615 37.6301 200.64 38.2182 200.706 38.8021C200.735 39.0251 200.842 39.2306 201.006 39.3825C201.166 39.5192 201.371 39.5917 201.581 39.5862C201.838 39.5849 202.085 39.4907 202.279 39.3207C202.493 39.1449 202.642 38.9012 202.701 38.6293C202.793 38.0165 202.827 37.3964 202.805 36.7771V33.7952H204.323V40.8395H202.909Z" fill="#195AA3"/>
<path d="M205.369 38.833L206.887 38.549C206.894 38.7031 206.931 38.8543 206.997 38.9937C207.063 39.1331 207.155 39.2579 207.269 39.3608C207.383 39.4637 207.516 39.5426 207.661 39.593C207.805 39.6433 207.958 39.6641 208.111 39.6541C208.398 39.6762 208.684 39.6024 208.925 39.4442C209.01 39.3807 209.078 39.2977 209.125 39.2022C209.172 39.1067 209.196 39.0013 209.194 38.8947C209.203 38.7628 209.161 38.6325 209.078 38.5305C208.935 38.4112 208.764 38.3305 208.582 38.2959C207.746 38.1318 206.949 37.8091 206.232 37.3451C206.025 37.1472 205.862 36.9061 205.757 36.6384C205.651 36.3708 205.604 36.0832 205.62 35.7955C205.607 35.5045 205.655 35.214 205.76 34.9428C205.866 34.6716 206.027 34.4258 206.232 34.2212C206.727 33.7863 207.37 33.5646 208.025 33.6038C208.628 33.564 209.228 33.7174 209.739 34.0422C210.158 34.4191 210.433 34.9325 210.516 35.493L209.09 35.814C209.051 35.5614 208.917 35.3333 208.717 35.1762C208.517 35.0191 208.265 34.9447 208.013 34.9682C207.738 34.9473 207.463 35.0028 207.217 35.1287C207.145 35.1732 207.085 35.2357 207.043 35.3103C207.001 35.3849 206.979 35.469 206.979 35.5547C206.98 35.6316 207 35.7069 207.037 35.7738C207.075 35.8407 207.128 35.897 207.193 35.9375C207.624 36.1492 208.078 36.3108 208.545 36.4191C209.187 36.549 209.781 36.852 210.265 37.2957C210.578 37.6757 210.738 38.1606 210.712 38.654C210.72 38.9681 210.663 39.2805 210.544 39.5709C210.425 39.8612 210.246 40.1231 210.02 40.3394C209.493 40.8049 208.804 41.0422 208.105 41C207.449 41.0343 206.8 40.8403 206.269 40.4505C205.787 40.0369 205.468 39.4632 205.369 38.833Z" fill="#195AA3"/>
<path d="M215.369 38.6046L216.874 38.9133C216.731 39.5245 216.401 40.075 215.932 40.4876C215.406 40.8721 214.759 41.0498 214.112 40.9873C213.465 40.9248 212.863 40.6263 212.419 40.148C211.83 39.3433 211.54 38.3558 211.599 37.3575C211.549 36.3468 211.838 35.3486 212.419 34.5237C212.627 34.2395 212.899 34.0098 213.214 33.854C213.528 33.6982 213.874 33.6209 214.224 33.6285C214.598 33.6158 214.968 33.6953 215.304 33.8599C215.64 34.0245 215.931 34.2693 216.152 34.5731C216.743 35.4874 217.025 36.5706 216.954 37.66V37.8699H213.166C213.142 38.3312 213.271 38.7875 213.533 39.1664C213.631 39.3072 213.761 39.4226 213.912 39.503C214.063 39.5835 214.231 39.6268 214.402 39.6294C214.879 39.6109 215.204 39.2713 215.369 38.6046ZM215.448 36.7092C215.462 36.2711 215.34 35.8397 215.1 35.4745C215.011 35.3446 214.892 35.2384 214.753 35.1651C214.615 35.0917 214.46 35.0534 214.304 35.0534C214.148 35.0534 213.993 35.0917 213.855 35.1651C213.716 35.2384 213.597 35.3446 213.508 35.4745C213.261 35.8354 213.144 36.2715 213.178 36.7092H215.448Z" fill="#195AA3"/>
<path d="M217.651 38.833L219.169 38.549C219.176 38.7031 219.213 38.8543 219.279 38.9937C219.345 39.1331 219.437 39.2579 219.551 39.3608C219.665 39.4637 219.798 39.5426 219.943 39.593C220.087 39.6433 220.24 39.6641 220.393 39.6541C220.682 39.6762 220.97 39.6025 221.213 39.4442C221.298 39.3807 221.367 39.2977 221.413 39.2022C221.46 39.1067 221.484 39.0013 221.482 38.8947C221.489 38.762 221.446 38.6316 221.36 38.5305C221.22 38.4098 221.051 38.3288 220.87 38.2959C220.017 38.139 219.202 37.8161 218.471 37.3451C218.265 37.1494 218.103 36.9103 217.997 36.6448C217.891 36.3793 217.844 36.0936 217.859 35.8079C217.845 35.5167 217.892 35.2257 217.998 34.9543C218.103 34.6829 218.265 34.4372 218.471 34.2335C218.966 33.7987 219.61 33.577 220.265 33.6162C220.865 33.5764 221.463 33.7299 221.972 34.0545C222.404 34.4178 222.696 34.9224 222.798 35.4806L221.372 35.8017C221.33 35.5536 221.198 35.3304 221 35.1761C220.803 35.0218 220.556 34.9476 220.307 34.9682C220.033 34.9479 219.758 35.0034 219.512 35.1287C219.441 35.1743 219.382 35.2373 219.342 35.3117C219.301 35.3862 219.279 35.4697 219.279 35.5547C219.278 35.6319 219.298 35.7079 219.335 35.7752C219.373 35.8424 219.428 35.8984 219.493 35.9375C219.922 36.1497 220.374 36.3113 220.84 36.4191C221.482 36.5506 222.078 36.8533 222.566 37.2957C222.879 37.6757 223.038 38.1606 223.012 38.654C223.021 38.9681 222.963 39.2805 222.844 39.5709C222.725 39.8612 222.547 40.1231 222.321 40.3394C221.791 40.8058 221.101 41.0432 220.399 41C219.743 41.0358 219.094 40.8417 218.563 40.4505C218.075 40.0407 217.751 39.4659 217.651 38.833Z" fill="#195AA3"/>
<path d="M82.9029 1.51875H79.7268V4.41424H82.9029V1.51875Z" fill="#195AA3"/>
<path d="M89.6651 1.51875H86.489V4.41424H89.6651V1.51875Z" fill="#195AA3"/>
<path d="M29.5028 7.40852V18.0274C29.5028 19.4968 29.3009 20.4969 28.8909 20.9291C28.4808 21.3612 27.6486 21.6082 26.3696 21.6082H26.1248C24.8458 21.6082 24.0013 21.3736 23.5912 20.9106C23.1812 20.4475 22.9793 19.4782 22.9793 18.0089V7.40852H18.8791V19.009C18.8791 22.9273 20.8211 24.8865 24.705 24.8865C25.2619 24.8865 25.7637 24.9359 26.2472 24.8865C26.7245 24.9359 27.2263 24.8865 27.7832 24.8865C31.6671 24.8865 33.6091 22.9273 33.6091 19.009V7.40852H29.5028Z" fill="#195AA3"/>
<path d="M48.8838 7.40852V18.0274C48.8838 19.4968 48.6818 20.4969 48.2718 20.9291C47.8618 21.3612 47.0295 21.6082 45.7505 21.6082H45.5057C44.2267 21.6082 43.3822 21.3736 42.9722 20.9106C42.5622 20.4475 42.3602 19.4782 42.3602 18.0089V7.40852H38.26V19.009C38.26 22.9273 40.202 24.8865 44.086 24.8865C44.6428 24.8865 45.1446 24.9359 45.6281 24.8865C46.1054 24.9359 46.6072 24.8865 47.1641 24.8865C51.0522 24.8865 52.9941 22.9273 52.99 19.009V7.40852H48.8838Z" fill="#195AA3"/>
<path d="M87.9516 7.40852V18.0274C87.9516 19.4968 87.7497 20.4969 87.3396 20.9291C86.9296 21.3612 86.1157 21.6267 84.8122 21.6267H84.5674C83.2884 21.6267 82.4439 21.3921 82.0339 20.9291C81.6239 20.466 81.4219 19.4968 81.4219 18.0274V7.40852H77.3156V19.009C77.3156 22.9273 79.2576 24.8865 83.1416 24.8865C83.6984 24.8865 84.2003 24.9359 84.6837 24.8865C85.161 24.9359 85.6628 24.8865 86.2197 24.8865C90.1078 24.8865 92.0497 22.9273 92.0456 19.009V7.40852H87.9516Z" fill="#E52A5A"/>
</g>
<defs>
<clipPath id="clip0">
<rect width="223" height="41" fill="white"/>
</clipPath>
</defs>
</svg>
