<svg id="Capa_1" data-name="Capa 1" xmlns="http://www.w3.org/2000/svg" width="405.96" height="512" viewBox="0 0 405.96 512">
  <title>shopping-bag</title>
  <path d="M458.74,422.22,435.87,134.1A36,36,0,0,0,400.13,101H355V99A99,99,0,1,0,157,99v2H111.87a36,36,0,0,0-35.74,33.06L53.26,422.26A83.37,83.37,0,0,0,136.38,512H375.62a83.37,83.37,0,0,0,83.12-89.78ZM187,99a69,69,0,0,1,138,0v2H187ZM414.78,464.9A52.83,52.83,0,0,1,375.62,482H136.39a53.37,53.37,0,0,1-53.22-57.42L106,136.39a5.88,5.88,0,0,1,5.84-5.41H157v36.93a15,15,0,0,0,30,0V131H325v36.93a15,15,0,0,0,30,0V131h45.16a5.89,5.89,0,0,1,5.84,5.45l22.86,288.12A52.83,52.83,0,0,1,414.78,464.9Z" transform="translate(-53.02)" style="fill: #4da987"/>
  <path d="M323.56,254.29a15,15,0,0,0-21.2,0l-67,67-25.75-25.75a15,15,0,0,0-21.21,21.21L224.79,353a15,15,0,0,0,21.2,0l77.56-77.56A15,15,0,0,0,323.56,254.29Z" transform="translate(-53.02)" style="fill: #4da987"/>
</svg>
